<svg width="775" height="233" viewBox="0 0 775 233" fill="none" xmlns="http://www.w3.org/2000/svg">
<g clip-path="url(#clip0_1_2)">
<mask id="path-1-inside-1_1_2" fill="white">
<path d="M293.852 182V51.0909H372.858V65.1534H309.705V109.386H368.767V123.449H309.705V167.938H373.881V182H293.852ZM439.016 220.864C431.729 220.864 425.464 219.926 420.223 218.051C414.982 216.219 410.614 213.79 407.119 210.764C403.668 207.781 400.919 204.585 398.874 201.176L410.891 192.739C412.254 194.528 413.98 196.574 416.068 198.875C418.156 201.219 421.011 203.243 424.634 204.947C428.298 206.695 433.092 207.568 439.016 207.568C446.942 207.568 453.483 205.651 458.639 201.815C463.795 197.98 466.374 191.972 466.374 183.79V163.847H465.095C463.987 165.636 462.411 167.852 460.365 170.494C458.362 173.094 455.464 175.416 451.672 177.462C447.922 179.464 442.851 180.466 436.459 180.466C428.533 180.466 421.416 178.591 415.109 174.841C408.845 171.091 403.881 165.636 400.216 158.477C396.594 151.318 394.783 142.625 394.783 132.398C394.783 122.341 396.551 113.584 400.088 106.126C403.625 98.6264 408.547 92.831 414.854 88.7401C421.161 84.6065 428.447 82.5398 436.714 82.5398C443.107 82.5398 448.178 83.6051 451.928 85.7358C455.72 87.8239 458.618 90.2102 460.621 92.8949C462.666 95.5369 464.243 97.7102 465.351 99.4148H466.885V83.8182H481.459V184.812C481.459 193.25 479.541 200.111 475.706 205.395C471.913 210.722 466.8 214.621 460.365 217.092C453.973 219.607 446.857 220.864 439.016 220.864ZM438.504 166.915C444.555 166.915 449.669 165.53 453.845 162.76C458.021 159.99 461.196 156.006 463.369 150.807C465.543 145.608 466.629 139.386 466.629 132.142C466.629 125.068 465.564 118.825 463.433 113.413C461.303 108.001 458.149 103.761 453.973 100.693C449.797 97.625 444.641 96.0909 438.504 96.0909C432.112 96.0909 426.786 97.7102 422.524 100.949C418.305 104.187 415.131 108.534 413 113.989C410.912 119.443 409.868 125.494 409.868 132.142C409.868 138.96 410.933 144.99 413.064 150.232C415.237 155.43 418.433 159.521 422.652 162.504C426.913 165.445 432.197 166.915 438.504 166.915ZM548.703 220.864C541.416 220.864 535.152 219.926 529.911 218.051C524.669 216.219 520.301 213.79 516.807 210.764C513.355 207.781 510.607 204.585 508.561 201.176L520.578 192.739C521.942 194.528 523.668 196.574 525.756 198.875C527.844 201.219 530.699 203.243 534.321 204.947C537.986 206.695 542.78 207.568 548.703 207.568C556.629 207.568 563.17 205.651 568.327 201.815C573.483 197.98 576.061 191.972 576.061 183.79V163.847H574.783C573.675 165.636 572.098 167.852 570.053 170.494C568.05 173.094 565.152 175.416 561.359 177.462C557.609 179.464 552.538 180.466 546.146 180.466C538.22 180.466 531.104 178.591 524.797 174.841C518.533 171.091 513.568 165.636 509.903 158.477C506.281 151.318 504.47 142.625 504.47 132.398C504.47 122.341 506.239 113.584 509.776 106.126C513.313 98.6264 518.234 92.831 524.541 88.7401C530.848 84.6065 538.135 82.5398 546.402 82.5398C552.794 82.5398 557.865 83.6051 561.615 85.7358C565.408 87.8239 568.305 90.2102 570.308 92.8949C572.354 95.5369 573.93 97.7102 575.038 99.4148H576.572V83.8182H591.146V184.812C591.146 193.25 589.229 200.111 585.393 205.395C581.601 210.722 576.487 214.621 570.053 217.092C563.661 219.607 556.544 220.864 548.703 220.864ZM548.192 166.915C554.243 166.915 559.357 165.53 563.533 162.76C567.709 159.99 570.884 156.006 573.057 150.807C575.23 145.608 576.317 139.386 576.317 132.142C576.317 125.068 575.251 118.825 573.121 113.413C570.99 108.001 567.837 103.761 563.661 100.693C559.484 97.625 554.328 96.0909 548.192 96.0909C541.8 96.0909 536.473 97.7102 532.212 100.949C527.993 104.187 524.818 108.534 522.688 113.989C520.599 119.443 519.555 125.494 519.555 132.142C519.555 138.96 520.621 144.99 522.751 150.232C524.925 155.43 528.121 159.521 532.339 162.504C536.601 165.445 541.885 166.915 548.192 166.915ZM626.175 182H609.555L657.624 51.0909H673.987L722.055 182H705.436L666.317 71.8011H665.294L626.175 182ZM632.311 130.864H699.3V144.926H632.311V130.864ZM758.298 51.0909V182H742.446V51.0909H758.298Z"/>
</mask>
<path d="M293.852 182V51.0909H372.858V65.1534H309.705V109.386H368.767V123.449H309.705V167.938H373.881V182H293.852ZM439.016 220.864C431.729 220.864 425.464 219.926 420.223 218.051C414.982 216.219 410.614 213.79 407.119 210.764C403.668 207.781 400.919 204.585 398.874 201.176L410.891 192.739C412.254 194.528 413.98 196.574 416.068 198.875C418.156 201.219 421.011 203.243 424.634 204.947C428.298 206.695 433.092 207.568 439.016 207.568C446.942 207.568 453.483 205.651 458.639 201.815C463.795 197.98 466.374 191.972 466.374 183.79V163.847H465.095C463.987 165.636 462.411 167.852 460.365 170.494C458.362 173.094 455.464 175.416 451.672 177.462C447.922 179.464 442.851 180.466 436.459 180.466C428.533 180.466 421.416 178.591 415.109 174.841C408.845 171.091 403.881 165.636 400.216 158.477C396.594 151.318 394.783 142.625 394.783 132.398C394.783 122.341 396.551 113.584 400.088 106.126C403.625 98.6264 408.547 92.831 414.854 88.7401C421.161 84.6065 428.447 82.5398 436.714 82.5398C443.107 82.5398 448.178 83.6051 451.928 85.7358C455.72 87.8239 458.618 90.2102 460.621 92.8949C462.666 95.5369 464.243 97.7102 465.351 99.4148H466.885V83.8182H481.459V184.812C481.459 193.25 479.541 200.111 475.706 205.395C471.913 210.722 466.8 214.621 460.365 217.092C453.973 219.607 446.857 220.864 439.016 220.864ZM438.504 166.915C444.555 166.915 449.669 165.53 453.845 162.76C458.021 159.99 461.196 156.006 463.369 150.807C465.543 145.608 466.629 139.386 466.629 132.142C466.629 125.068 465.564 118.825 463.433 113.413C461.303 108.001 458.149 103.761 453.973 100.693C449.797 97.625 444.641 96.0909 438.504 96.0909C432.112 96.0909 426.786 97.7102 422.524 100.949C418.305 104.187 415.131 108.534 413 113.989C410.912 119.443 409.868 125.494 409.868 132.142C409.868 138.96 410.933 144.99 413.064 150.232C415.237 155.43 418.433 159.521 422.652 162.504C426.913 165.445 432.197 166.915 438.504 166.915ZM548.703 220.864C541.416 220.864 535.152 219.926 529.911 218.051C524.669 216.219 520.301 213.79 516.807 210.764C513.355 207.781 510.607 204.585 508.561 201.176L520.578 192.739C521.942 194.528 523.668 196.574 525.756 198.875C527.844 201.219 530.699 203.243 534.321 204.947C537.986 206.695 542.78 207.568 548.703 207.568C556.629 207.568 563.17 205.651 568.327 201.815C573.483 197.98 576.061 191.972 576.061 183.79V163.847H574.783C573.675 165.636 572.098 167.852 570.053 170.494C568.05 173.094 565.152 175.416 561.359 177.462C557.609 179.464 552.538 180.466 546.146 180.466C538.22 180.466 531.104 178.591 524.797 174.841C518.533 171.091 513.568 165.636 509.903 158.477C506.281 151.318 504.47 142.625 504.47 132.398C504.47 122.341 506.239 113.584 509.776 106.126C513.313 98.6264 518.234 92.831 524.541 88.7401C530.848 84.6065 538.135 82.5398 546.402 82.5398C552.794 82.5398 557.865 83.6051 561.615 85.7358C565.408 87.8239 568.305 90.2102 570.308 92.8949C572.354 95.5369 573.93 97.7102 575.038 99.4148H576.572V83.8182H591.146V184.812C591.146 193.25 589.229 200.111 585.393 205.395C581.601 210.722 576.487 214.621 570.053 217.092C563.661 219.607 556.544 220.864 548.703 220.864ZM548.192 166.915C554.243 166.915 559.357 165.53 563.533 162.76C567.709 159.99 570.884 156.006 573.057 150.807C575.23 145.608 576.317 139.386 576.317 132.142C576.317 125.068 575.251 118.825 573.121 113.413C570.99 108.001 567.837 103.761 563.661 100.693C559.484 97.625 554.328 96.0909 548.192 96.0909C541.8 96.0909 536.473 97.7102 532.212 100.949C527.993 104.187 524.818 108.534 522.688 113.989C520.599 119.443 519.555 125.494 519.555 132.142C519.555 138.96 520.621 144.99 522.751 150.232C524.925 155.43 528.121 159.521 532.339 162.504C536.601 165.445 541.885 166.915 548.192 166.915ZM626.175 182H609.555L657.624 51.0909H673.987L722.055 182H705.436L666.317 71.8011H665.294L626.175 182ZM632.311 130.864H699.3V144.926H632.311V130.864ZM758.298 51.0909V182H742.446V51.0909H758.298Z" fill="black" stroke="white" stroke-width="2" mask="url(#path-1-inside-1_1_2)"/>
<path d="M148.084 96.5016L148.082 96.4934L148.079 96.4854C145.049 87.6039 141.107 79.6724 134.723 73.0839L134.364 73.4318L134.723 73.0839C129.153 67.3357 122.45 64.5215 115.764 64.6597C109.079 64.798 102.467 67.887 97.075 73.8427C88.7425 83.0467 84.0963 94.0276 82.33 106.084C80.6505 117.548 79.3353 129.294 84.9353 140.541C91.5096 153.745 104.865 161.35 119.911 160.018C134.104 158.761 146.188 148.648 149.921 134.728C153.36 121.904 151.964 109.285 148.084 96.5016ZM7.90248 103.479L7.69955 103.022L7.9025 103.479L40.1926 89.1379C63.748 78.6762 82.6288 59.5404 93.1178 35.5044L104.848 8.62182C109.184 -1.3115 122.908 -1.3114 127.243 8.62182L138.974 35.5044C149.463 59.5404 168.344 78.6762 191.899 89.1379L224.189 103.479C234.059 107.862 234.059 122.242 224.189 126.626L192.908 140.518C168.747 151.249 149.527 171.094 139.217 195.949L127.334 224.598C123.096 234.818 108.996 234.819 104.757 224.598L92.8741 195.949C82.5646 171.094 63.3456 151.249 39.184 140.518L38.981 140.975L39.1839 140.518L7.90252 126.626C-1.96755 122.242 -1.96745 107.862 7.90248 103.479Z" fill="black" stroke="white"/>
<line x1="644.656" y1="109.003" x2="627.656" y2="157.003" stroke="black" stroke-width="12"/>
<line x1="687.653" y1="110.99" x2="703.653" y2="155.99" stroke="black" stroke-width="12"/>
<line x1="635" y1="138.5" x2="694" y2="138.5" stroke="black" stroke-width="11"/>
<line x1="635" y1="132.5" x2="694" y2="132.5" stroke="black"/>
</g>
<defs>
<clipPath id="clip0_1_2">
<rect width="775" height="233" fill="white"/>
</clipPath>
</defs>
</svg>
