<svg width="1600" height="516" viewBox="0 0 1600 516" fill="none" xmlns="http://www.w3.org/2000/svg">
<rect width="1600" height="516" fill="white"/>
<path d="M405.454 71.625L606.009 72.2148L620.296 80.0872L627.364 88.7901L629.985 107.327L632 207.212L628.859 239.46L618.953 241.542L605.536 250.787L404.224 255L389.274 247.886L384.099 233.802L377.76 219.984L376 105.751L386.067 85.841L394.081 77.3307L405.652 70" fill="#6FCF97"/>
<path d="M406.452 73.3739C480.319 66.1607 556.168 66.2569 603.218 73.3739M406.452 73.3739C458.198 75.6941 506.699 78.0264 603.218 73.3739M406.452 73.3739C386.807 75.8865 373.83 89.7719 376.097 111.844M406.452 73.3739C388.979 78.2308 372.047 89.0987 376.097 111.844M603.218 73.3739C624.314 72.0875 636.485 87.668 633.573 111.844M603.218 73.3739C625.861 75.6581 631.514 87.3795 633.573 111.844M633.573 111.844C632.491 134.169 634.436 150.651 633.573 211.639M633.573 111.844C634.682 144.484 632.055 181.884 633.573 211.639M633.573 211.639C633.174 237.943 623.906 250.578 603.218 250.109M633.573 211.639C634.796 235.106 624.191 252.718 603.218 250.109M603.218 250.109C543.229 250.614 483.677 252.297 406.452 250.109M603.218 250.109C548.56 252.021 496.549 253.175 406.452 250.109M406.452 250.109C387.67 248.606 377.283 233.663 376.097 211.639M406.452 250.109C386.883 247.813 378.45 232.677 376.097 211.639M376.097 211.639C376.202 186.934 379.342 163.431 376.097 111.844M376.097 211.639C374.001 177.172 375.433 146.648 376.097 111.844" stroke="black" stroke-width="3" stroke-linecap="round"/>
<path d="M460.501 172.4C458.714 172.24 456.181 172.653 452.901 173.64L452.381 174.16C452.247 174.347 452.167 174.52 452.141 174.68C452.141 174.813 452.154 175.027 452.181 175.32C452.207 175.587 452.207 175.84 452.181 176.08C452.341 177.787 451.821 179.08 450.621 179.96C449.981 180.067 449.394 179.907 448.861 179.48C448.247 178.813 447.981 178.213 448.061 177.68C448.007 176.24 448.101 175.053 448.341 174.12V173.92C447.727 172.827 447.461 172.12 447.541 171.8C447.487 171.56 447.501 171.333 447.581 171.12C447.661 170.88 447.754 170.707 447.861 170.6C447.967 170.467 448.141 170.293 448.381 170.08C448.621 169.84 448.781 169.68 448.861 169.6L449.101 169.08C449.207 168.68 449.301 168.107 449.381 167.36C449.461 166.587 449.541 165.987 449.621 165.56C449.621 165.267 449.661 164.733 449.741 163.96C449.821 163.187 449.861 162.787 449.861 162.76V159.48C449.861 159.427 449.767 159.187 449.581 158.76C449.421 158.307 449.341 158.04 449.341 157.96C449.341 157.453 449.514 156.96 449.861 156.48C450.234 155.973 450.661 155.707 451.141 155.68C451.994 155.493 452.661 155.747 453.141 156.44C453.327 157.213 453.421 158.36 453.421 159.88C453.421 161.4 453.407 162.28 453.381 162.52C453.354 162.92 453.274 163.6 453.141 164.56C453.007 165.52 452.914 166.227 452.861 166.68C452.834 167.133 452.847 167.773 452.901 168.6C452.901 168.627 452.927 168.68 452.981 168.76C453.061 168.813 453.114 168.84 453.141 168.84C453.487 168.84 454.061 168.787 454.861 168.68C455.661 168.547 456.301 168.52 456.781 168.6C458.087 168.36 459.234 168.28 460.221 168.36C460.701 168.2 460.954 168.107 460.981 168.08C461.407 167.813 461.661 167.48 461.741 167.08C462.514 163.72 462.847 161.067 462.741 159.12C462.741 158.507 462.741 157.893 462.741 157.28C462.741 156.64 462.887 156.027 463.181 155.44C463.474 154.853 463.927 154.427 464.541 154.16C465.554 154.187 466.314 154.693 466.821 155.68C466.821 157.147 466.727 158.16 466.541 158.72C466.487 158.987 466.301 160.267 465.981 162.56C465.687 164.853 465.367 166.533 465.021 167.6C465.021 167.627 465.007 167.667 464.981 167.72C464.981 167.773 464.981 167.827 464.981 167.88C464.821 168.52 464.687 169.267 464.581 170.12C464.501 170.973 464.447 171.693 464.421 172.28C464.394 172.867 464.367 173.693 464.341 174.76C464.314 175.827 464.287 176.56 464.261 176.96C464.287 177.227 464.327 177.72 464.381 178.44C464.461 179.16 464.514 179.707 464.541 180.08C464.567 180.453 464.554 180.92 464.501 181.48C464.474 182.04 464.394 182.533 464.261 182.96C464.207 183.067 464.127 183.147 464.021 183.2C463.914 183.28 463.781 183.333 463.621 183.36C463.461 183.413 463.341 183.453 463.261 183.48H463.021C461.927 182.12 461.247 180.36 460.981 178.2C460.901 177.613 460.834 176.68 460.781 175.4C460.727 174.093 460.634 173.093 460.501 172.4ZM484.972 168.72L485.172 168.76C485.279 167.667 485.505 166.933 485.852 166.56C486.145 166.187 486.385 166 486.572 166C486.652 166 486.745 166 486.852 166C487.039 165.973 487.199 165.987 487.332 166.04C487.492 166.093 487.679 166.227 487.892 166.44C488.132 166.627 488.292 166.747 488.372 166.8C488.799 167.493 488.972 168.333 488.892 169.32C488.892 169.373 488.639 170 488.132 171.2C487.945 172.187 487.919 173.2 488.052 174.24C488.185 175.253 488.559 176.173 489.172 177C489.679 178.173 489.719 179.027 489.292 179.56C489.185 179.827 488.985 179.96 488.692 179.96C488.532 179.96 488.332 179.92 488.092 179.84C487.879 179.76 487.625 179.653 487.332 179.52C487.039 179.387 486.839 179.307 486.732 179.28C485.772 178.64 485.159 177.587 484.892 176.12C483.825 177.267 482.799 178.107 481.812 178.64C480.852 179.147 479.545 179.587 477.892 179.96C477.012 180.067 476.145 179.96 475.292 179.64C474.465 179.32 473.852 179 473.452 178.68C473.052 178.36 472.372 177.773 471.412 176.92C471.039 176.413 470.732 175.933 470.492 175.48C470.279 175.027 470.119 174.533 470.012 174C469.932 173.467 469.879 173.08 469.852 172.84C469.825 172.573 469.825 172.08 469.852 171.36C469.879 170.613 469.892 170.107 469.892 169.84C470.052 169.68 470.132 169.427 470.132 169.08V168.84C470.052 168.44 470.225 167.507 470.652 166.04C470.705 165.933 470.852 165.76 471.092 165.52C471.359 165.253 471.545 165.093 471.652 165.04C471.892 164.987 472.319 165.013 472.932 165.12C473.545 165.227 473.879 165.28 473.932 165.28C474.145 165.333 474.305 165.427 474.412 165.56C474.545 165.693 474.625 165.867 474.652 166.08C474.705 166.267 474.732 166.44 474.732 166.6C474.732 166.76 474.719 166.973 474.692 167.24C474.692 167.507 474.692 167.693 474.692 167.8C474.692 167.853 474.652 167.947 474.572 168.08L474.452 168.32C473.919 169.467 473.652 170.667 473.652 171.92C473.572 172.613 473.745 173.333 474.172 174.08C474.599 174.8 475.119 175.413 475.732 175.92C477.012 176.213 477.799 176.36 478.092 176.36C478.652 176.36 479.212 176.213 479.772 175.92C480.199 175.76 480.599 175.547 480.972 175.28C481.372 174.987 481.692 174.72 481.932 174.48C482.199 174.213 482.492 173.84 482.812 173.36C483.159 172.88 483.399 172.533 483.532 172.32C483.665 172.08 483.905 171.653 484.252 171.04C484.599 170.427 484.825 170.04 484.932 169.88C484.932 169.747 484.932 169.547 484.932 169.28C484.959 169.013 484.972 168.827 484.972 168.72ZM495.506 168.44L495.746 169.72C495.666 170.067 495.84 170.907 496.266 172.24C497.333 171.12 498.08 170.107 498.506 169.2C499.093 168.533 499.346 167.853 499.266 167.16C500.44 166.493 501.453 166.24 502.306 166.4C502.786 166.533 503.293 167.133 503.826 168.2V172L504.106 172.24C504.613 171.707 505.266 170.92 506.066 169.88C506.893 168.84 507.413 168.187 507.626 167.92C508.426 166.827 509.186 166.067 509.906 165.64C511.026 165.773 511.866 166.2 512.426 166.92C513.2 168.227 513.706 170.08 513.946 172.48C513.92 172.96 513.946 173.467 514.026 174C514.106 174.533 514.226 175.12 514.386 175.76C514.546 176.4 514.653 176.907 514.706 177.28C514.973 178.027 515.066 178.707 514.986 179.32C514.96 179.667 514.786 179.893 514.466 180C514.146 180.107 513.813 180.12 513.466 180.04C512.88 179.907 512.373 179.413 511.946 178.56C511.76 178.16 511.586 177.773 511.426 177.4C511.293 177 511.16 176.52 511.026 175.96C510.92 175.373 510.84 174.987 510.786 174.8C510.76 174.613 510.693 174.12 510.586 173.32C510.48 172.493 510.426 172.053 510.426 172C510.24 171.467 510.026 171.2 509.786 171.2C509.68 171.253 509.48 171.413 509.186 171.68C508.893 171.947 508.6 172.227 508.306 172.52C508.04 172.787 507.746 173.093 507.426 173.44C507.106 173.76 506.92 173.947 506.866 174L506.466 174.56L504.986 176.48L504.586 177.04C504.48 177.147 504.28 177.4 503.986 177.8C503.72 178.173 503.48 178.453 503.266 178.64C503.08 178.827 502.853 178.973 502.586 179.08C502.133 179.16 501.706 179.12 501.306 178.96C500.906 178.773 500.653 178.467 500.546 178.04C500.386 177.827 500.306 177.573 500.306 177.28V173.04H500.226C500.12 172.987 500.053 172.973 500.026 173C498.186 175.587 496.76 177.773 495.746 179.56C495.506 179.88 495.333 180.04 495.226 180.04C494.08 180.173 493.413 180.013 493.226 179.56C493.146 179.427 493.04 179.16 492.906 178.76C492.773 178.333 492.706 178.093 492.706 178.04V168.32C492.813 167.6 493.16 167.24 493.746 167.24C494.066 167.24 494.4 167.36 494.746 167.6C495.093 167.84 495.346 168.12 495.506 168.44ZM532.619 174.24C532.406 174.4 532.152 174.733 531.859 175.24C530.446 176.787 529.059 178.027 527.699 178.96C526.366 179.867 524.912 180.307 523.339 180.28C522.512 180.387 521.659 180.28 520.779 179.96C519.899 179.613 519.206 179.133 518.699 178.52C518.459 178.147 518.286 177.893 518.179 177.76C518.099 177.6 517.966 177.36 517.779 177.04C517.592 176.693 517.459 176.413 517.379 176.2C517.326 175.987 517.259 175.733 517.179 175.44C517.099 175.147 517.059 174.867 517.059 174.6C517.059 174.307 517.099 174.013 517.179 173.72C517.206 172.813 517.499 171.893 518.059 170.96C518.646 170.027 519.232 169.28 519.819 168.72C520.406 168.16 521.166 167.493 522.099 166.72C522.286 166.587 522.419 166.48 522.499 166.4C523.619 165.493 525.139 165.04 527.059 165.04C527.459 165.04 528.726 165.147 530.859 165.36C530.912 165.413 531.086 165.507 531.379 165.64C531.699 165.773 531.926 165.92 532.059 166.08C532.192 166.213 532.206 166.4 532.099 166.64L532.619 167.16C533.419 167.507 533.926 167.84 534.139 168.16C535.472 170.88 536.646 173.067 537.659 174.72C537.766 174.853 538.099 175.16 538.659 175.64C539.246 176.093 539.592 176.387 539.699 176.52C539.912 176.68 540.166 176.907 540.459 177.2C540.779 177.467 541.046 177.667 541.259 177.8C541.472 177.933 541.712 178.013 541.979 178.04C542.006 178.067 542.179 178.227 542.499 178.52C542.526 178.6 542.512 178.707 542.459 178.84C542.432 178.947 542.392 179.08 542.339 179.24C542.286 179.4 542.246 179.507 542.219 179.56C541.952 179.96 541.366 180.28 540.459 180.52C540.139 180.52 539.912 180.533 539.779 180.56C539.672 180.613 539.486 180.587 539.219 180.48C538.979 180.4 538.806 180.333 538.699 180.28C538.619 180.253 538.446 180.16 538.179 180C537.912 179.84 537.712 179.72 537.579 179.64L537.419 179.56C536.752 179 535.832 178.04 534.659 176.68C533.512 175.293 532.832 174.48 532.619 174.24ZM520.979 175.48C521.459 176.2 522.179 176.56 523.139 176.56C523.592 176.56 524.219 176.453 525.019 176.24C526.326 175.76 527.512 174.92 528.579 173.72C529.619 172.28 530.206 171.013 530.339 169.92C530.339 169.84 530.392 169.533 530.499 169C530.606 168.44 530.646 168.053 530.619 167.84C530.086 167.973 529.312 168.08 528.299 168.16C527.312 168.213 526.552 168.293 526.019 168.4C525.326 168.507 524.619 168.84 523.899 169.4C523.179 169.933 522.632 170.44 522.259 170.92C521.886 171.4 521.379 172.08 520.739 172.96C520.286 173.52 520.366 174.36 520.979 175.48ZM554.019 169.12C552.259 170.613 550.659 172.467 549.219 174.68C549.165 174.787 548.819 175.373 548.179 176.44C547.565 177.48 547.152 178.24 546.939 178.72C546.645 179.2 546.219 179.373 545.659 179.24L543.899 177.44V176.2C544.032 175.507 544.179 174.16 544.339 172.16C544.499 170.16 544.605 168.973 544.659 168.6C544.659 168.467 544.645 168.347 544.619 168.24L544.459 167.2C544.432 167.093 544.419 166.973 544.419 166.84V166.68C544.419 166.253 544.552 165.907 544.819 165.64C545.112 165.373 545.472 165.253 545.899 165.28C546.752 165.28 547.352 165.547 547.699 166.08C547.885 166.8 547.979 167.733 547.979 168.88C547.979 169.12 547.965 169.427 547.939 169.8C547.939 170.147 547.939 170.333 547.939 170.36C548.152 170.2 548.579 169.8 549.219 169.16C549.885 168.493 550.299 168.053 550.459 167.84C550.645 167.6 550.872 167.28 551.139 166.88C551.432 166.453 551.712 166.093 551.979 165.8C552.245 165.48 552.565 165.173 552.939 164.88C553.072 164.693 553.232 164.56 553.419 164.48C553.605 164.373 553.779 164.32 553.939 164.32C554.125 164.293 554.325 164.28 554.539 164.28C554.752 164.28 554.965 164.28 555.179 164.28C555.472 164.173 555.765 164.2 556.059 164.36C556.379 164.493 556.712 164.787 557.059 165.24C557.405 165.667 557.619 165.96 557.699 166.12C557.805 166.28 558.019 166.613 558.339 167.12C559.165 169.04 559.579 171.133 559.579 173.4L560.339 176.68C560.339 176.76 560.419 177.027 560.579 177.48C560.765 177.933 560.859 178.173 560.859 178.2C560.912 178.92 560.739 179.427 560.339 179.72C560.259 179.747 560.059 179.827 559.739 179.96C559.445 180.067 559.219 180.12 559.059 180.12C558.792 180.12 558.632 179.987 558.579 179.72C558.525 179.64 558.339 179.347 558.019 178.84C557.725 178.307 557.485 177.933 557.299 177.72C556.792 175.96 556.459 174.267 556.299 172.64C556.219 172.453 556.099 172.053 555.939 171.44C555.805 170.8 555.672 170.36 555.539 170.12C554.979 169.48 554.605 169.133 554.419 169.08C554.205 169.08 554.072 169.093 554.019 169.12Z" fill="black"/>
<path d="M405.454 71.625L606.009 72.2148L620.296 80.0872L627.364 88.7901L629.985 107.327L632 207.212L628.859 239.46L618.953 241.542L605.536 250.787L404.224 255L389.274 247.886L384.099 233.802L377.76 219.984L376 105.751L386.067 85.841L394.081 77.3307L405.652 70" fill="#6FCF97"/>
<path d="M460.501 172.4C458.714 172.24 456.181 172.653 452.901 173.64L452.381 174.16C452.247 174.347 452.167 174.52 452.141 174.68C452.141 174.813 452.154 175.027 452.181 175.32C452.207 175.587 452.207 175.84 452.181 176.08C452.341 177.787 451.821 179.08 450.621 179.96C449.981 180.067 449.394 179.907 448.861 179.48C448.247 178.813 447.981 178.213 448.061 177.68C448.007 176.24 448.101 175.053 448.341 174.12V173.92C447.727 172.827 447.461 172.12 447.541 171.8C447.487 171.56 447.501 171.333 447.581 171.12C447.661 170.88 447.754 170.707 447.861 170.6C447.967 170.467 448.141 170.293 448.381 170.08C448.621 169.84 448.781 169.68 448.861 169.6L449.101 169.08C449.207 168.68 449.301 168.107 449.381 167.36C449.461 166.587 449.541 165.987 449.621 165.56C449.621 165.267 449.661 164.733 449.741 163.96C449.821 163.187 449.861 162.787 449.861 162.76V159.48C449.861 159.427 449.767 159.187 449.581 158.76C449.421 158.307 449.341 158.04 449.341 157.96C449.341 157.453 449.514 156.96 449.861 156.48C450.234 155.973 450.661 155.707 451.141 155.68C451.994 155.493 452.661 155.747 453.141 156.44C453.327 157.213 453.421 158.36 453.421 159.88C453.421 161.4 453.407 162.28 453.381 162.52C453.354 162.92 453.274 163.6 453.141 164.56C453.007 165.52 452.914 166.227 452.861 166.68C452.834 167.133 452.847 167.773 452.901 168.6C452.901 168.627 452.927 168.68 452.981 168.76C453.061 168.813 453.114 168.84 453.141 168.84C453.487 168.84 454.061 168.787 454.861 168.68C455.661 168.547 456.301 168.52 456.781 168.6C458.087 168.36 459.234 168.28 460.221 168.36C460.701 168.2 460.954 168.107 460.981 168.08C461.407 167.813 461.661 167.48 461.741 167.08C462.514 163.72 462.847 161.067 462.741 159.12C462.741 158.507 462.741 157.893 462.741 157.28C462.741 156.64 462.887 156.027 463.181 155.44C463.474 154.853 463.927 154.427 464.541 154.16C465.554 154.187 466.314 154.693 466.821 155.68C466.821 157.147 466.727 158.16 466.541 158.72C466.487 158.987 466.301 160.267 465.981 162.56C465.687 164.853 465.367 166.533 465.021 167.6C465.021 167.627 465.007 167.667 464.981 167.72C464.981 167.773 464.981 167.827 464.981 167.88C464.821 168.52 464.687 169.267 464.581 170.12C464.501 170.973 464.447 171.693 464.421 172.28C464.394 172.867 464.367 173.693 464.341 174.76C464.314 175.827 464.287 176.56 464.261 176.96C464.287 177.227 464.327 177.72 464.381 178.44C464.461 179.16 464.514 179.707 464.541 180.08C464.567 180.453 464.554 180.92 464.501 181.48C464.474 182.04 464.394 182.533 464.261 182.96C464.207 183.067 464.127 183.147 464.021 183.2C463.914 183.28 463.781 183.333 463.621 183.36C463.461 183.413 463.341 183.453 463.261 183.48H463.021C461.927 182.12 461.247 180.36 460.981 178.2C460.901 177.613 460.834 176.68 460.781 175.4C460.727 174.093 460.634 173.093 460.501 172.4ZM484.972 168.72L485.172 168.76C485.279 167.667 485.505 166.933 485.852 166.56C486.145 166.187 486.385 166 486.572 166C486.652 166 486.745 166 486.852 166C487.039 165.973 487.199 165.987 487.332 166.04C487.492 166.093 487.679 166.227 487.892 166.44C488.132 166.627 488.292 166.747 488.372 166.8C488.799 167.493 488.972 168.333 488.892 169.32C488.892 169.373 488.639 170 488.132 171.2C487.945 172.187 487.919 173.2 488.052 174.24C488.185 175.253 488.559 176.173 489.172 177C489.679 178.173 489.719 179.027 489.292 179.56C489.185 179.827 488.985 179.96 488.692 179.96C488.532 179.96 488.332 179.92 488.092 179.84C487.879 179.76 487.625 179.653 487.332 179.52C487.039 179.387 486.839 179.307 486.732 179.28C485.772 178.64 485.159 177.587 484.892 176.12C483.825 177.267 482.799 178.107 481.812 178.64C480.852 179.147 479.545 179.587 477.892 179.96C477.012 180.067 476.145 179.96 475.292 179.64C474.465 179.32 473.852 179 473.452 178.68C473.052 178.36 472.372 177.773 471.412 176.92C471.039 176.413 470.732 175.933 470.492 175.48C470.279 175.027 470.119 174.533 470.012 174C469.932 173.467 469.879 173.08 469.852 172.84C469.825 172.573 469.825 172.08 469.852 171.36C469.879 170.613 469.892 170.107 469.892 169.84C470.052 169.68 470.132 169.427 470.132 169.08V168.84C470.052 168.44 470.225 167.507 470.652 166.04C470.705 165.933 470.852 165.76 471.092 165.52C471.359 165.253 471.545 165.093 471.652 165.04C471.892 164.987 472.319 165.013 472.932 165.12C473.545 165.227 473.879 165.28 473.932 165.28C474.145 165.333 474.305 165.427 474.412 165.56C474.545 165.693 474.625 165.867 474.652 166.08C474.705 166.267 474.732 166.44 474.732 166.6C474.732 166.76 474.719 166.973 474.692 167.24C474.692 167.507 474.692 167.693 474.692 167.8C474.692 167.853 474.652 167.947 474.572 168.08L474.452 168.32C473.919 169.467 473.652 170.667 473.652 171.92C473.572 172.613 473.745 173.333 474.172 174.08C474.599 174.8 475.119 175.413 475.732 175.92C477.012 176.213 477.799 176.36 478.092 176.36C478.652 176.36 479.212 176.213 479.772 175.92C480.199 175.76 480.599 175.547 480.972 175.28C481.372 174.987 481.692 174.72 481.932 174.48C482.199 174.213 482.492 173.84 482.812 173.36C483.159 172.88 483.399 172.533 483.532 172.32C483.665 172.08 483.905 171.653 484.252 171.04C484.599 170.427 484.825 170.04 484.932 169.88C484.932 169.747 484.932 169.547 484.932 169.28C484.959 169.013 484.972 168.827 484.972 168.72ZM495.506 168.44L495.746 169.72C495.666 170.067 495.84 170.907 496.266 172.24C497.333 171.12 498.08 170.107 498.506 169.2C499.093 168.533 499.346 167.853 499.266 167.16C500.44 166.493 501.453 166.24 502.306 166.4C502.786 166.533 503.293 167.133 503.826 168.2V172L504.106 172.24C504.613 171.707 505.266 170.92 506.066 169.88C506.893 168.84 507.413 168.187 507.626 167.92C508.426 166.827 509.186 166.067 509.906 165.64C511.026 165.773 511.866 166.2 512.426 166.92C513.2 168.227 513.706 170.08 513.946 172.48C513.92 172.96 513.946 173.467 514.026 174C514.106 174.533 514.226 175.12 514.386 175.76C514.546 176.4 514.653 176.907 514.706 177.28C514.973 178.027 515.066 178.707 514.986 179.32C514.96 179.667 514.786 179.893 514.466 180C514.146 180.107 513.813 180.12 513.466 180.04C512.88 179.907 512.373 179.413 511.946 178.56C511.76 178.16 511.586 177.773 511.426 177.4C511.293 177 511.16 176.52 511.026 175.96C510.92 175.373 510.84 174.987 510.786 174.8C510.76 174.613 510.693 174.12 510.586 173.32C510.48 172.493 510.426 172.053 510.426 172C510.24 171.467 510.026 171.2 509.786 171.2C509.68 171.253 509.48 171.413 509.186 171.68C508.893 171.947 508.6 172.227 508.306 172.52C508.04 172.787 507.746 173.093 507.426 173.44C507.106 173.76 506.92 173.947 506.866 174L506.466 174.56L504.986 176.48L504.586 177.04C504.48 177.147 504.28 177.4 503.986 177.8C503.72 178.173 503.48 178.453 503.266 178.64C503.08 178.827 502.853 178.973 502.586 179.08C502.133 179.16 501.706 179.12 501.306 178.96C500.906 178.773 500.653 178.467 500.546 178.04C500.386 177.827 500.306 177.573 500.306 177.28V173.04H500.226C500.12 172.987 500.053 172.973 500.026 173C498.186 175.587 496.76 177.773 495.746 179.56C495.506 179.88 495.333 180.04 495.226 180.04C494.08 180.173 493.413 180.013 493.226 179.56C493.146 179.427 493.04 179.16 492.906 178.76C492.773 178.333 492.706 178.093 492.706 178.04V168.32C492.813 167.6 493.16 167.24 493.746 167.24C494.066 167.24 494.4 167.36 494.746 167.6C495.093 167.84 495.346 168.12 495.506 168.44ZM532.619 174.24C532.406 174.4 532.152 174.733 531.859 175.24C530.446 176.787 529.059 178.027 527.699 178.96C526.366 179.867 524.912 180.307 523.339 180.28C522.512 180.387 521.659 180.28 520.779 179.96C519.899 179.613 519.206 179.133 518.699 178.52C518.459 178.147 518.286 177.893 518.179 177.76C518.099 177.6 517.966 177.36 517.779 177.04C517.592 176.693 517.459 176.413 517.379 176.2C517.326 175.987 517.259 175.733 517.179 175.44C517.099 175.147 517.059 174.867 517.059 174.6C517.059 174.307 517.099 174.013 517.179 173.72C517.206 172.813 517.499 171.893 518.059 170.96C518.646 170.027 519.232 169.28 519.819 168.72C520.406 168.16 521.166 167.493 522.099 166.72C522.286 166.587 522.419 166.48 522.499 166.4C523.619 165.493 525.139 165.04 527.059 165.04C527.459 165.04 528.726 165.147 530.859 165.36C530.912 165.413 531.086 165.507 531.379 165.64C531.699 165.773 531.926 165.92 532.059 166.08C532.192 166.213 532.206 166.4 532.099 166.64L532.619 167.16C533.419 167.507 533.926 167.84 534.139 168.16C535.472 170.88 536.646 173.067 537.659 174.72C537.766 174.853 538.099 175.16 538.659 175.64C539.246 176.093 539.592 176.387 539.699 176.52C539.912 176.68 540.166 176.907 540.459 177.2C540.779 177.467 541.046 177.667 541.259 177.8C541.472 177.933 541.712 178.013 541.979 178.04C542.006 178.067 542.179 178.227 542.499 178.52C542.526 178.6 542.512 178.707 542.459 178.84C542.432 178.947 542.392 179.08 542.339 179.24C542.286 179.4 542.246 179.507 542.219 179.56C541.952 179.96 541.366 180.28 540.459 180.52C540.139 180.52 539.912 180.533 539.779 180.56C539.672 180.613 539.486 180.587 539.219 180.48C538.979 180.4 538.806 180.333 538.699 180.28C538.619 180.253 538.446 180.16 538.179 180C537.912 179.84 537.712 179.72 537.579 179.64L537.419 179.56C536.752 179 535.832 178.04 534.659 176.68C533.512 175.293 532.832 174.48 532.619 174.24ZM520.979 175.48C521.459 176.2 522.179 176.56 523.139 176.56C523.592 176.56 524.219 176.453 525.019 176.24C526.326 175.76 527.512 174.92 528.579 173.72C529.619 172.28 530.206 171.013 530.339 169.92C530.339 169.84 530.392 169.533 530.499 169C530.606 168.44 530.646 168.053 530.619 167.84C530.086 167.973 529.312 168.08 528.299 168.16C527.312 168.213 526.552 168.293 526.019 168.4C525.326 168.507 524.619 168.84 523.899 169.4C523.179 169.933 522.632 170.44 522.259 170.92C521.886 171.4 521.379 172.08 520.739 172.96C520.286 173.52 520.366 174.36 520.979 175.48ZM554.019 169.12C552.259 170.613 550.659 172.467 549.219 174.68C549.165 174.787 548.819 175.373 548.179 176.44C547.565 177.48 547.152 178.24 546.939 178.72C546.645 179.2 546.219 179.373 545.659 179.24L543.899 177.44V176.2C544.032 175.507 544.179 174.16 544.339 172.16C544.499 170.16 544.605 168.973 544.659 168.6C544.659 168.467 544.645 168.347 544.619 168.24L544.459 167.2C544.432 167.093 544.419 166.973 544.419 166.84V166.68C544.419 166.253 544.552 165.907 544.819 165.64C545.112 165.373 545.472 165.253 545.899 165.28C546.752 165.28 547.352 165.547 547.699 166.08C547.885 166.8 547.979 167.733 547.979 168.88C547.979 169.12 547.965 169.427 547.939 169.8C547.939 170.147 547.939 170.333 547.939 170.36C548.152 170.2 548.579 169.8 549.219 169.16C549.885 168.493 550.299 168.053 550.459 167.84C550.645 167.6 550.872 167.28 551.139 166.88C551.432 166.453 551.712 166.093 551.979 165.8C552.245 165.48 552.565 165.173 552.939 164.88C553.072 164.693 553.232 164.56 553.419 164.48C553.605 164.373 553.779 164.32 553.939 164.32C554.125 164.293 554.325 164.28 554.539 164.28C554.752 164.28 554.965 164.28 555.179 164.28C555.472 164.173 555.765 164.2 556.059 164.36C556.379 164.493 556.712 164.787 557.059 165.24C557.405 165.667 557.619 165.96 557.699 166.12C557.805 166.28 558.019 166.613 558.339 167.12C559.165 169.04 559.579 171.133 559.579 173.4L560.339 176.68C560.339 176.76 560.419 177.027 560.579 177.48C560.765 177.933 560.859 178.173 560.859 178.2C560.912 178.92 560.739 179.427 560.339 179.72C560.259 179.747 560.059 179.827 559.739 179.96C559.445 180.067 559.219 180.12 559.059 180.12C558.792 180.12 558.632 179.987 558.579 179.72C558.525 179.64 558.339 179.347 558.019 178.84C557.725 178.307 557.485 177.933 557.299 177.72C556.792 175.96 556.459 174.267 556.299 172.64C556.219 172.453 556.099 172.053 555.939 171.44C555.805 170.8 555.672 170.36 555.539 170.12C554.979 169.48 554.605 169.133 554.419 169.08C554.205 169.08 554.072 169.093 554.019 169.12Z" fill="black"/>
<path d="M702.454 68.625L903.009 69.2148L917.296 77.0872L924.364 85.7901L926.985 104.327L929 204.212L925.859 236.46L915.953 238.542L902.536 247.787L701.224 252L686.274 244.886L681.099 230.802L674.76 216.984L673 102.751L683.067 82.841L691.081 74.3307L702.652 67" fill="#4C6EF5"/>
<path d="M703.452 70.3739C777.319 63.1607 853.168 63.2569 900.218 70.3739M703.452 70.3739C755.198 72.6941 803.699 75.0264 900.218 70.3739M703.452 70.3739C683.807 72.8865 670.83 86.7719 673.097 108.844M703.452 70.3739C685.979 75.2308 669.047 86.0987 673.097 108.844M900.218 70.3739C921.314 69.0875 933.485 84.668 930.573 108.844M900.218 70.3739C922.861 72.6581 928.514 84.3795 930.573 108.844M930.573 108.844C929.491 131.169 931.436 147.651 930.573 208.639M930.573 108.844C931.682 141.484 929.055 178.884 930.573 208.639M930.573 208.639C930.174 234.943 920.906 247.578 900.218 247.109M930.573 208.639C931.796 232.106 921.191 249.718 900.218 247.109M900.218 247.109C840.229 247.614 780.677 249.297 703.452 247.109M900.218 247.109C845.56 249.021 793.549 250.175 703.452 247.109M703.452 247.109C684.67 245.606 674.283 230.663 673.097 208.639M703.452 247.109C683.883 244.813 675.45 229.677 673.097 208.639M673.097 208.639C673.202 183.934 676.342 160.431 673.097 108.844M673.097 208.639C671.001 174.172 672.433 143.648 673.097 108.844" stroke="black" stroke-width="3" stroke-linecap="round"/>
<path d="M750.944 170.44C750.944 170.173 750.81 169.733 750.544 169.12C750.384 168.96 750.29 168.88 750.264 168.88L749.864 168.68C749.304 168.813 748.104 169.04 746.264 169.36C744.45 169.653 743.197 169.933 742.504 170.2C742.024 170.333 741.637 170.4 741.344 170.4C741.024 170.4 740.664 170.347 740.264 170.24H740.024C739.917 170.32 739.57 170.653 738.984 171.24C738.397 171.8 737.837 172.333 737.304 172.84C736.797 173.32 736.45 173.627 736.264 173.76C735.97 173.973 735.49 174.293 734.824 174.72C734.157 175.173 733.677 175.52 733.384 175.76C732.45 175.76 731.984 175.507 731.984 175C731.824 174.12 732.144 173.2 732.944 172.24L736.744 168.72C738.024 167.253 739.45 165.44 741.024 163.28C742.597 161.12 743.81 159.547 744.664 158.56C744.93 158.16 745.37 157.493 745.984 156.56C746.597 155.627 747.037 154.92 747.304 154.44C747.597 153.96 747.957 153.333 748.384 152.56C748.81 151.787 749.144 151.053 749.384 150.36C749.624 149.64 749.824 148.893 749.984 148.12C749.984 148.093 750.037 147.853 750.144 147.4C750.277 146.92 750.33 146.653 750.304 146.6C750.917 145.747 751.544 145.307 752.184 145.28C752.424 145.253 752.584 145.24 752.664 145.24C753.197 145.24 753.65 145.427 754.024 145.8C754.397 146.173 754.57 146.587 754.544 147.04C754.544 147.2 754.504 147.787 754.424 148.8C754.344 149.787 754.277 150.613 754.224 151.28C754.197 151.707 754.157 152.267 754.104 152.96C754.077 153.653 754.05 154.213 754.024 154.64C753.997 155.04 753.97 155.333 753.944 155.52C753.97 156.853 753.97 157.853 753.944 158.52C753.944 159.187 753.917 160.187 753.864 161.52C753.837 162.827 753.824 163.827 753.824 164.52C754.09 164.787 754.41 164.92 754.784 164.92C754.837 164.92 754.984 164.947 755.224 165C755.464 165.027 755.65 165.053 755.784 165.08C755.917 165.107 756.064 165.147 756.224 165.2C756.41 165.253 756.557 165.333 756.664 165.44C756.797 165.547 756.904 165.68 756.984 165.84C757.01 165.893 757.01 166 756.984 166.16C756.984 166.32 756.97 166.427 756.944 166.48C756.65 166.747 755.877 167.187 754.624 167.8C754.517 167.827 754.41 167.893 754.304 168C754.17 168.373 754.224 169.053 754.464 170.04C754.704 171.027 754.824 171.587 754.824 171.72C754.85 171.96 754.904 172.333 754.984 172.84C755.064 173.32 755.117 173.693 755.144 173.96C755.17 174.227 755.117 174.533 754.984 174.88C754.85 175.253 754.61 175.573 754.264 175.84C753.97 176 753.637 176.08 753.264 176.08C752.917 176.08 752.584 176 752.264 175.84C751.864 175.52 751.344 174.867 750.704 173.88L750.504 173.48C750.477 173.133 750.557 172.627 750.744 171.96C750.93 171.293 750.997 170.787 750.944 170.44ZM743.064 166.04C743.037 166.067 743.05 166.107 743.104 166.16C743.184 166.213 743.25 166.24 743.304 166.24C743.464 166.24 743.81 166.24 744.344 166.24C744.877 166.213 745.264 166.2 745.504 166.2C745.77 166.173 746.144 166.147 746.624 166.12C747.13 166.067 747.544 166.013 747.864 165.96C748.184 165.907 748.544 165.827 748.944 165.72C749.344 165.613 749.704 165.493 750.024 165.36L750.304 165.16L750.464 163.2V161.36L750.424 157.84V156C749.997 156.267 749.557 156.853 749.104 157.76C748.65 158.667 748.237 159.293 747.864 159.64C747.33 160.52 746.464 161.72 745.264 163.24C744.064 164.733 743.33 165.667 743.064 166.04ZM760.674 182.84C761.287 182.36 761.9 182.12 762.514 182.12C762.994 182.12 763.394 182.28 763.714 182.6C763.847 182.733 764.194 183.133 764.754 183.8C765.314 184.493 765.807 185 766.234 185.32C766.66 185.64 767.127 185.84 767.634 185.92C767.714 185.92 767.767 185.907 767.794 185.88C768.354 185.613 768.754 185.147 768.994 184.48C769.234 183.813 769.394 182.973 769.474 181.96C769.58 180.947 769.687 180.24 769.794 179.84C769.9 179.147 770.047 178.013 770.234 176.44C770.447 174.867 770.62 173.733 770.754 173.04H770.314C768.927 173.36 767.567 173.52 766.234 173.52C764.954 173.52 763.607 173.36 762.194 173.04C761.1 172.4 760.154 171.6 759.354 170.64C758.58 169.653 758.18 168.587 758.154 167.44C758.26 166.267 758.874 165.107 759.994 163.96C761.114 162.787 762.274 161.933 763.474 161.4C764.46 160.573 765.687 160.16 767.154 160.16C769.047 160.16 770.434 160.813 771.314 162.12C771.314 162.28 771.314 162.533 771.314 162.88C771.34 163.2 771.34 163.453 771.314 163.64C771.314 163.8 771.234 163.96 771.074 164.12C770.914 164.28 770.66 164.373 770.314 164.4C769.994 164.213 769.127 164.04 767.714 163.88C766.034 163.773 764.367 164.707 762.714 166.68C762.58 166.813 762.487 166.96 762.434 167.12C762.38 167.28 762.38 167.44 762.434 167.6C762.487 167.76 762.54 167.907 762.594 168.04C762.674 168.173 762.78 168.32 762.914 168.48C763.074 168.613 763.194 168.733 763.274 168.84C763.38 168.92 763.514 169.04 763.674 169.2C763.834 169.333 763.94 169.427 763.994 169.48C764.794 169.8 765.674 169.96 766.634 169.96C767.487 169.96 768.354 169.827 769.234 169.56C770.14 169.267 770.954 168.8 771.674 168.16C772.394 167.52 772.78 166.773 772.834 165.92C773.074 164.747 773.754 163.987 774.874 163.64H774.994C775.047 163.667 775.167 163.707 775.354 163.76C775.567 163.813 775.7 163.853 775.754 163.88C775.807 163.88 775.914 163.907 776.074 163.96C776.234 164.013 776.34 164.053 776.394 164.08C776.474 164.107 776.567 164.16 776.674 164.24C776.807 164.293 776.887 164.36 776.914 164.44C776.967 164.493 777.02 164.573 777.074 164.68C777.154 164.76 777.194 164.853 777.194 164.96C777.194 165.04 777.194 165.147 777.194 165.28C777.194 165.413 777.18 165.547 777.154 165.68C777.207 166.48 776.847 167.587 776.074 169C775.327 170.387 774.887 171.373 774.754 171.96C773.58 175.747 772.767 179.467 772.314 183.12C772.127 185.413 771.714 187.093 771.074 188.16C770.274 189.36 769.62 190.133 769.114 190.48C768.714 190.72 768.274 190.88 767.794 190.96C766.46 190.427 764.847 189.413 762.954 187.92C762.367 187.627 761.914 187.387 761.594 187.2C761.3 187.013 760.98 186.733 760.634 186.36C760.287 185.987 760.047 185.573 759.914 185.12C759.86 184 760.114 183.24 760.674 182.84ZM781.753 162.6C783.673 160.147 785.779 158.547 788.073 157.8C789.539 157.613 790.313 157.52 790.393 157.52C792.046 157.573 793.486 158.08 794.713 159.04C795.939 159.973 796.593 161.253 796.673 162.88C796.699 164.293 796.126 165.587 794.953 166.76C793.806 167.933 792.526 168.573 791.113 168.68C790.579 168.867 790.006 168.96 789.393 168.96C788.006 168.96 786.473 168.453 784.793 167.44C784.286 166.933 783.953 166.68 783.793 166.68C783.686 166.627 783.593 166.627 783.513 166.68C782.633 168.013 782.206 169.027 782.233 169.72C782.526 171.453 783.459 172.92 785.033 174.12C786.606 175.347 788.273 175.907 790.033 175.8C790.299 175.907 790.766 175.907 791.433 175.8C792.099 175.72 792.539 175.653 792.753 175.6C792.993 175.547 793.446 175.413 794.113 175.2C794.806 175.013 795.286 174.88 795.553 174.8C796.486 174.427 797.726 174.187 799.273 174.08H799.553C799.739 174.027 799.913 174.067 800.073 174.2C800.233 174.333 800.326 174.533 800.353 174.8V176.28C799.393 177.373 798.206 177.96 796.793 178.04C796.499 178.12 795.966 178.267 795.193 178.48C794.446 178.693 793.873 178.84 793.473 178.92C793.099 179.027 792.593 179.12 791.953 179.2C791.339 179.307 790.779 179.347 790.273 179.32C787.926 179.427 785.673 178.827 783.513 177.52C781.539 176.507 780.019 174.747 778.953 172.24C778.553 170.667 778.619 169.133 779.153 167.64C779.686 166.147 780.553 164.467 781.753 162.6ZM784.873 164.52C785.433 164.52 785.913 164.56 786.313 164.64C786.553 164.773 786.779 164.88 786.993 164.96C787.233 165.013 787.513 165.067 787.833 165.12C788.179 165.147 788.406 165.16 788.513 165.16C788.619 165.16 788.899 165.16 789.353 165.16C789.833 165.16 790.086 165.16 790.113 165.16C791.499 164.733 792.419 164.133 792.873 163.36C792.953 163.067 792.953 162.813 792.873 162.6C792.819 162.36 792.673 162.16 792.433 162C792.193 161.84 791.966 161.72 791.753 161.64C791.539 161.56 791.246 161.467 790.873 161.36C790.526 161.227 790.273 161.133 790.113 161.08C789.473 161.08 788.819 161.267 788.153 161.64C787.486 161.987 786.953 162.333 786.553 162.68C786.153 163.027 785.646 163.507 785.033 164.12C785.033 164.147 785.006 164.213 784.953 164.32C784.899 164.4 784.873 164.467 784.873 164.52ZM810.548 163.12C808.788 164.613 807.188 166.467 805.748 168.68C805.694 168.787 805.348 169.373 804.708 170.44C804.094 171.48 803.681 172.24 803.468 172.72C803.174 173.2 802.748 173.373 802.188 173.24L800.428 171.44V170.2C800.561 169.507 800.708 168.16 800.868 166.16C801.028 164.16 801.134 162.973 801.188 162.6C801.188 162.467 801.174 162.347 801.148 162.24L800.988 161.2C800.961 161.093 800.948 160.973 800.948 160.84V160.68C800.948 160.253 801.081 159.907 801.348 159.64C801.641 159.373 802.001 159.253 802.428 159.28C803.281 159.28 803.881 159.547 804.228 160.08C804.414 160.8 804.508 161.733 804.508 162.88C804.508 163.12 804.494 163.427 804.468 163.8C804.468 164.147 804.468 164.333 804.468 164.36C804.681 164.2 805.108 163.8 805.748 163.16C806.414 162.493 806.828 162.053 806.988 161.84C807.174 161.6 807.401 161.28 807.668 160.88C807.961 160.453 808.241 160.093 808.508 159.8C808.774 159.48 809.094 159.173 809.468 158.88C809.601 158.693 809.761 158.56 809.948 158.48C810.134 158.373 810.308 158.32 810.468 158.32C810.654 158.293 810.854 158.28 811.068 158.28C811.281 158.28 811.494 158.28 811.708 158.28C812.001 158.173 812.294 158.2 812.588 158.36C812.908 158.493 813.241 158.787 813.588 159.24C813.934 159.667 814.148 159.96 814.228 160.12C814.334 160.28 814.548 160.613 814.868 161.12C815.694 163.04 816.108 165.133 816.108 167.4L816.868 170.68C816.868 170.76 816.948 171.027 817.108 171.48C817.294 171.933 817.388 172.173 817.388 172.2C817.441 172.92 817.268 173.427 816.868 173.72C816.788 173.747 816.588 173.827 816.268 173.96C815.974 174.067 815.748 174.12 815.588 174.12C815.321 174.12 815.161 173.987 815.108 173.72C815.054 173.64 814.868 173.347 814.548 172.84C814.254 172.307 814.014 171.933 813.828 171.72C813.321 169.96 812.988 168.267 812.828 166.64C812.748 166.453 812.628 166.053 812.468 165.44C812.334 164.8 812.201 164.36 812.068 164.12C811.508 163.48 811.134 163.133 810.948 163.08C810.734 163.08 810.601 163.093 810.548 163.12ZM824.9 166.48L824.98 163.2C824.98 162.427 824.913 161.24 824.78 159.64C824.62 159.027 824.473 158.667 824.34 158.56C822.58 158.693 821.233 158.987 820.3 159.44C820.06 159.44 819.713 159.533 819.26 159.72C818.806 159.907 818.42 159.973 818.1 159.92C817.913 159.84 817.726 159.72 817.54 159.56C817.353 159.4 817.166 159.213 816.98 159C816.766 158.76 816.593 158.587 816.46 158.48C816.353 158.213 816.313 157.84 816.34 157.36C816.366 156.88 816.46 156.52 816.62 156.28L817.94 155.12C819.326 155.093 821.393 154.827 824.14 154.32L824.42 154L824.5 147.72C825.113 147.053 825.873 146.813 826.78 147C827.5 147.56 827.9 148.253 827.98 149.08C828.06 149.24 828.113 149.907 828.14 151.08C828.166 152.253 828.273 152.933 828.46 153.12C828.486 153.12 828.606 153.16 828.82 153.24C829.06 153.293 829.193 153.333 829.22 153.36C829.753 153.307 830.433 153.213 831.26 153.08C832.086 152.92 832.686 152.827 833.06 152.8C833.433 152.773 834.113 152.787 835.1 152.84L836.94 152.92C838.086 153.08 838.513 153.747 838.22 154.92C837.766 155.373 837.42 155.627 837.18 155.68C836.566 155.733 835.94 155.813 835.3 155.92C834.66 156.027 833.86 156.2 832.9 156.44C831.966 156.653 831.34 156.787 831.02 156.84L830.94 156.88C830.246 156.907 829.46 157.08 828.58 157.4L828.38 157.68C828.38 158 828.353 158.533 828.3 159.28C828.273 160 828.273 160.627 828.3 161.16C828.326 161.667 828.406 162.187 828.54 162.72C828.54 167.387 828.78 170.293 829.26 171.44C829.793 171.92 830.273 172.173 830.7 172.2C830.94 172.2 831.246 172.16 831.62 172.08C831.726 172.053 831.886 172.013 832.1 171.96C832.313 171.907 832.46 171.88 832.54 171.88C832.62 171.853 832.74 171.813 832.9 171.76C833.06 171.707 833.166 171.667 833.22 171.64C833.3 171.613 833.393 171.573 833.5 171.52C833.633 171.44 833.726 171.36 833.78 171.28C833.86 171.2 833.953 171.107 834.06 171C834.166 170.893 834.26 170.773 834.34 170.64C834.446 170.507 834.553 170.36 834.66 170.2C834.766 170.013 834.886 169.813 835.02 169.6C834.993 169.467 835.033 169.147 835.14 168.64C835.246 168.133 835.326 167.813 835.38 167.68C835.673 166.853 836.206 166.453 836.98 166.48C837.353 166.427 837.633 166.493 837.82 166.68C838.006 166.867 838.18 167.2 838.34 167.68L838.54 168.36C838.353 169.667 838.153 170.48 837.94 170.8C837.406 171.867 836.993 172.6 836.7 173C836.433 173.4 835.94 173.813 835.22 174.24C834.5 174.693 833.393 175.16 831.9 175.64C831.82 175.667 831.513 175.773 830.98 175.96C830.446 176.173 830.033 176.28 829.74 176.28C828.513 176.227 827.606 175.827 827.02 175.08C826.94 174.92 826.7 174.507 826.3 173.84C825.9 173.147 825.62 172.547 825.46 172.04C825.3 171.507 825.26 170.947 825.34 170.36C825.313 169.88 825.246 169.187 825.14 168.28C825.033 167.373 824.966 166.8 824.94 166.56C824.913 166.533 824.9 166.507 824.9 166.48ZM864.917 170.88C864.917 169.867 864.997 167.52 865.157 163.84C865.317 160.133 865.437 157.747 865.517 156.68C865.517 156.013 865.49 155.56 865.437 155.32C865.277 155.507 864.877 155.707 864.237 155.92C863.624 156.133 863.157 156.24 862.837 156.24C862.304 156.24 861.824 156.12 861.397 155.88C860.97 155.613 860.784 155.373 860.837 155.16C863.077 151.907 864.677 149.773 865.637 148.76C866.517 147.853 867.304 147.4 867.997 147.4C868.264 147.4 868.557 147.44 868.877 147.52C869.064 147.573 869.157 147.733 869.157 148V158.32C869.157 158.64 869.144 159.013 869.117 159.44L868.917 163.8C868.89 164.2 868.877 164.573 868.877 164.92C868.877 167.427 868.824 170.067 868.717 172.84C868.85 173.533 868.597 174.227 867.957 174.92C867.504 175.053 867.117 175.12 866.797 175.12C866.29 175.12 865.837 174.96 865.437 174.64C865.41 174.64 865.357 174.6 865.277 174.52C865.224 174.467 865.197 174.427 865.197 174.4C864.85 173.947 864.677 173.32 864.677 172.52C864.677 172.467 864.757 171.92 864.917 170.88Z" fill="black"/>
<path d="M996.454 70.625L1197.01 71.2148L1211.3 79.0872L1218.36 87.7901L1220.98 106.327L1223 206.212L1219.86 238.46L1209.95 240.542L1196.54 249.787L995.224 254L980.274 246.886L975.099 232.802L968.76 218.984L967 104.751L977.067 84.841L985.081 76.3307L996.652 69" fill="#4C6EF5"/>
<path d="M997.452 72.3739C1071.32 65.1607 1147.17 65.2569 1194.22 72.3739M997.452 72.3739C1049.2 74.6941 1097.7 77.0264 1194.22 72.3739M997.452 72.3739C977.807 74.8865 964.83 88.7719 967.097 110.844M997.452 72.3739C979.979 77.2308 963.047 88.0987 967.097 110.844M1194.22 72.3739C1215.31 71.0875 1227.48 86.668 1224.57 110.844M1194.22 72.3739C1216.86 74.6581 1222.51 86.3795 1224.57 110.844M1224.57 110.844C1223.49 133.169 1225.44 149.651 1224.57 210.639M1224.57 110.844C1225.68 143.484 1223.05 180.884 1224.57 210.639M1224.57 210.639C1224.17 236.943 1214.91 249.578 1194.22 249.109M1224.57 210.639C1225.8 234.106 1215.19 251.718 1194.22 249.109M1194.22 249.109C1134.23 249.614 1074.68 251.297 997.452 249.109M1194.22 249.109C1139.56 251.021 1087.55 252.175 997.452 249.109M997.452 249.109C978.67 247.606 968.283 232.663 967.097 210.639M997.452 249.109C977.883 246.813 969.45 231.677 967.097 210.639M967.097 210.639C967.202 185.934 970.342 162.431 967.097 110.844M967.097 210.639C965.001 176.172 966.433 145.648 967.097 110.844" stroke="black" stroke-width="3" stroke-linecap="round"/>
<path d="M1035.64 172.44C1035.64 172.173 1035.5 171.733 1035.24 171.12C1035.08 170.96 1034.98 170.88 1034.96 170.88L1034.56 170.68C1034 170.813 1032.8 171.04 1030.96 171.36C1029.14 171.653 1027.89 171.933 1027.2 172.2C1026.72 172.333 1026.33 172.4 1026.04 172.4C1025.72 172.4 1025.36 172.347 1024.96 172.24H1024.72C1024.61 172.32 1024.26 172.653 1023.68 173.24C1023.09 173.8 1022.53 174.333 1022 174.84C1021.49 175.32 1021.14 175.627 1020.96 175.76C1020.66 175.973 1020.18 176.293 1019.52 176.72C1018.85 177.173 1018.37 177.52 1018.08 177.76C1017.14 177.76 1016.68 177.507 1016.68 177C1016.52 176.12 1016.84 175.2 1017.64 174.24L1021.44 170.72C1022.72 169.253 1024.14 167.44 1025.72 165.28C1027.29 163.12 1028.5 161.547 1029.36 160.56C1029.62 160.16 1030.06 159.493 1030.68 158.56C1031.29 157.627 1031.73 156.92 1032 156.44C1032.29 155.96 1032.65 155.333 1033.08 154.56C1033.5 153.787 1033.84 153.053 1034.08 152.36C1034.32 151.64 1034.52 150.893 1034.68 150.12C1034.68 150.093 1034.73 149.853 1034.84 149.4C1034.97 148.92 1035.02 148.653 1035 148.6C1035.61 147.747 1036.24 147.307 1036.88 147.28C1037.12 147.253 1037.28 147.24 1037.36 147.24C1037.89 147.24 1038.34 147.427 1038.72 147.8C1039.09 148.173 1039.26 148.587 1039.24 149.04C1039.24 149.2 1039.2 149.787 1039.12 150.8C1039.04 151.787 1038.97 152.613 1038.92 153.28C1038.89 153.707 1038.85 154.267 1038.8 154.96C1038.77 155.653 1038.74 156.213 1038.72 156.64C1038.69 157.04 1038.66 157.333 1038.64 157.52C1038.66 158.853 1038.66 159.853 1038.64 160.52C1038.64 161.187 1038.61 162.187 1038.56 163.52C1038.53 164.827 1038.52 165.827 1038.52 166.52C1038.78 166.787 1039.1 166.92 1039.48 166.92C1039.53 166.92 1039.68 166.947 1039.92 167C1040.16 167.027 1040.34 167.053 1040.48 167.08C1040.61 167.107 1040.76 167.147 1040.92 167.2C1041.1 167.253 1041.25 167.333 1041.36 167.44C1041.49 167.547 1041.6 167.68 1041.68 167.84C1041.7 167.893 1041.7 168 1041.68 168.16C1041.68 168.32 1041.66 168.427 1041.64 168.48C1041.34 168.747 1040.57 169.187 1039.32 169.8C1039.21 169.827 1039.1 169.893 1039 170C1038.86 170.373 1038.92 171.053 1039.16 172.04C1039.4 173.027 1039.52 173.587 1039.52 173.72C1039.54 173.96 1039.6 174.333 1039.68 174.84C1039.76 175.32 1039.81 175.693 1039.84 175.96C1039.86 176.227 1039.81 176.533 1039.68 176.88C1039.54 177.253 1039.3 177.573 1038.96 177.84C1038.66 178 1038.33 178.08 1037.96 178.08C1037.61 178.08 1037.28 178 1036.96 177.84C1036.56 177.52 1036.04 176.867 1035.4 175.88L1035.2 175.48C1035.17 175.133 1035.25 174.627 1035.44 173.96C1035.62 173.293 1035.69 172.787 1035.64 172.44ZM1027.76 168.04C1027.73 168.067 1027.74 168.107 1027.8 168.16C1027.88 168.213 1027.94 168.24 1028 168.24C1028.16 168.24 1028.5 168.24 1029.04 168.24C1029.57 168.213 1029.96 168.2 1030.2 168.2C1030.46 168.173 1030.84 168.147 1031.32 168.12C1031.82 168.067 1032.24 168.013 1032.56 167.96C1032.88 167.907 1033.24 167.827 1033.64 167.72C1034.04 167.613 1034.4 167.493 1034.72 167.36L1035 167.16L1035.16 165.2V163.36L1035.12 159.84V158C1034.69 158.267 1034.25 158.853 1033.8 159.76C1033.34 160.667 1032.93 161.293 1032.56 161.64C1032.02 162.52 1031.16 163.72 1029.96 165.24C1028.76 166.733 1028.02 167.667 1027.76 168.04ZM1045.37 184.84C1045.98 184.36 1046.59 184.12 1047.21 184.12C1047.69 184.12 1048.09 184.28 1048.41 184.6C1048.54 184.733 1048.89 185.133 1049.45 185.8C1050.01 186.493 1050.5 187 1050.93 187.32C1051.35 187.64 1051.82 187.84 1052.33 187.92C1052.41 187.92 1052.46 187.907 1052.49 187.88C1053.05 187.613 1053.45 187.147 1053.69 186.48C1053.93 185.813 1054.09 184.973 1054.17 183.96C1054.27 182.947 1054.38 182.24 1054.49 181.84C1054.59 181.147 1054.74 180.013 1054.93 178.44C1055.14 176.867 1055.31 175.733 1055.45 175.04H1055.01C1053.62 175.36 1052.26 175.52 1050.93 175.52C1049.65 175.52 1048.3 175.36 1046.89 175.04C1045.79 174.4 1044.85 173.6 1044.05 172.64C1043.27 171.653 1042.87 170.587 1042.85 169.44C1042.95 168.267 1043.57 167.107 1044.69 165.96C1045.81 164.787 1046.97 163.933 1048.17 163.4C1049.15 162.573 1050.38 162.16 1051.85 162.16C1053.74 162.16 1055.13 162.813 1056.01 164.12C1056.01 164.28 1056.01 164.533 1056.01 164.88C1056.03 165.2 1056.03 165.453 1056.01 165.64C1056.01 165.8 1055.93 165.96 1055.77 166.12C1055.61 166.28 1055.35 166.373 1055.01 166.4C1054.69 166.213 1053.82 166.04 1052.41 165.88C1050.73 165.773 1049.06 166.707 1047.41 168.68C1047.27 168.813 1047.18 168.96 1047.13 169.12C1047.07 169.28 1047.07 169.44 1047.13 169.6C1047.18 169.76 1047.23 169.907 1047.29 170.04C1047.37 170.173 1047.47 170.32 1047.61 170.48C1047.77 170.613 1047.89 170.733 1047.97 170.84C1048.07 170.92 1048.21 171.04 1048.37 171.2C1048.53 171.333 1048.63 171.427 1048.69 171.48C1049.49 171.8 1050.37 171.96 1051.33 171.96C1052.18 171.96 1053.05 171.827 1053.93 171.56C1054.83 171.267 1055.65 170.8 1056.37 170.16C1057.09 169.52 1057.47 168.773 1057.53 167.92C1057.77 166.747 1058.45 165.987 1059.57 165.64H1059.69C1059.74 165.667 1059.86 165.707 1060.05 165.76C1060.26 165.813 1060.39 165.853 1060.45 165.88C1060.5 165.88 1060.61 165.907 1060.77 165.96C1060.93 166.013 1061.03 166.053 1061.09 166.08C1061.17 166.107 1061.26 166.16 1061.37 166.24C1061.5 166.293 1061.58 166.36 1061.61 166.44C1061.66 166.493 1061.71 166.573 1061.77 166.68C1061.85 166.76 1061.89 166.853 1061.89 166.96C1061.89 167.04 1061.89 167.147 1061.89 167.28C1061.89 167.413 1061.87 167.547 1061.85 167.68C1061.9 168.48 1061.54 169.587 1060.77 171C1060.02 172.387 1059.58 173.373 1059.45 173.96C1058.27 177.747 1057.46 181.467 1057.01 185.12C1056.82 187.413 1056.41 189.093 1055.77 190.16C1054.97 191.36 1054.31 192.133 1053.81 192.48C1053.41 192.72 1052.97 192.88 1052.49 192.96C1051.15 192.427 1049.54 191.413 1047.65 189.92C1047.06 189.627 1046.61 189.387 1046.29 189.2C1045.99 189.013 1045.67 188.733 1045.33 188.36C1044.98 187.987 1044.74 187.573 1044.61 187.12C1044.55 186 1044.81 185.24 1045.37 184.84ZM1066.44 164.6C1068.36 162.147 1070.47 160.547 1072.76 159.8C1074.23 159.613 1075 159.52 1075.08 159.52C1076.74 159.573 1078.18 160.08 1079.4 161.04C1080.63 161.973 1081.28 163.253 1081.36 164.88C1081.39 166.293 1080.82 167.587 1079.64 168.76C1078.5 169.933 1077.22 170.573 1075.8 170.68C1075.27 170.867 1074.7 170.96 1074.08 170.96C1072.7 170.96 1071.16 170.453 1069.48 169.44C1068.98 168.933 1068.64 168.68 1068.48 168.68C1068.38 168.627 1068.28 168.627 1068.2 168.68C1067.32 170.013 1066.9 171.027 1066.92 171.72C1067.22 173.453 1068.15 174.92 1069.72 176.12C1071.3 177.347 1072.96 177.907 1074.72 177.8C1074.99 177.907 1075.46 177.907 1076.12 177.8C1076.79 177.72 1077.23 177.653 1077.44 177.6C1077.68 177.547 1078.14 177.413 1078.8 177.2C1079.5 177.013 1079.98 176.88 1080.24 176.8C1081.18 176.427 1082.42 176.187 1083.96 176.08H1084.24C1084.43 176.027 1084.6 176.067 1084.76 176.2C1084.92 176.333 1085.02 176.533 1085.04 176.8V178.28C1084.08 179.373 1082.9 179.96 1081.48 180.04C1081.19 180.12 1080.66 180.267 1079.88 180.48C1079.14 180.693 1078.56 180.84 1078.16 180.92C1077.79 181.027 1077.28 181.12 1076.64 181.2C1076.03 181.307 1075.47 181.347 1074.96 181.32C1072.62 181.427 1070.36 180.827 1068.2 179.52C1066.23 178.507 1064.71 176.747 1063.64 174.24C1063.24 172.667 1063.31 171.133 1063.84 169.64C1064.38 168.147 1065.24 166.467 1066.44 164.6ZM1069.56 166.52C1070.12 166.52 1070.6 166.56 1071 166.64C1071.24 166.773 1071.47 166.88 1071.68 166.96C1071.92 167.013 1072.2 167.067 1072.52 167.12C1072.87 167.147 1073.1 167.16 1073.2 167.16C1073.31 167.16 1073.59 167.16 1074.04 167.16C1074.52 167.16 1074.78 167.16 1074.8 167.16C1076.19 166.733 1077.11 166.133 1077.56 165.36C1077.64 165.067 1077.64 164.813 1077.56 164.6C1077.51 164.36 1077.36 164.16 1077.12 164C1076.88 163.84 1076.66 163.72 1076.44 163.64C1076.23 163.56 1075.94 163.467 1075.56 163.36C1075.22 163.227 1074.96 163.133 1074.8 163.08C1074.16 163.08 1073.51 163.267 1072.84 163.64C1072.18 163.987 1071.64 164.333 1071.24 164.68C1070.84 165.027 1070.34 165.507 1069.72 166.12C1069.72 166.147 1069.7 166.213 1069.64 166.32C1069.59 166.4 1069.56 166.467 1069.56 166.52ZM1095.24 165.12C1093.48 166.613 1091.88 168.467 1090.44 170.68C1090.39 170.787 1090.04 171.373 1089.4 172.44C1088.79 173.48 1088.37 174.24 1088.16 174.72C1087.87 175.2 1087.44 175.373 1086.88 175.24L1085.12 173.44V172.2C1085.25 171.507 1085.4 170.16 1085.56 168.16C1085.72 166.16 1085.83 164.973 1085.88 164.6C1085.88 164.467 1085.87 164.347 1085.84 164.24L1085.68 163.2C1085.65 163.093 1085.64 162.973 1085.64 162.84V162.68C1085.64 162.253 1085.77 161.907 1086.04 161.64C1086.33 161.373 1086.69 161.253 1087.12 161.28C1087.97 161.28 1088.57 161.547 1088.92 162.08C1089.11 162.8 1089.2 163.733 1089.2 164.88C1089.2 165.12 1089.19 165.427 1089.16 165.8C1089.16 166.147 1089.16 166.333 1089.16 166.36C1089.37 166.2 1089.8 165.8 1090.44 165.16C1091.11 164.493 1091.52 164.053 1091.68 163.84C1091.87 163.6 1092.09 163.28 1092.36 162.88C1092.65 162.453 1092.93 162.093 1093.2 161.8C1093.47 161.48 1093.79 161.173 1094.16 160.88C1094.29 160.693 1094.45 160.56 1094.64 160.48C1094.83 160.373 1095 160.32 1095.16 160.32C1095.35 160.293 1095.55 160.28 1095.76 160.28C1095.97 160.28 1096.19 160.28 1096.4 160.28C1096.69 160.173 1096.99 160.2 1097.28 160.36C1097.6 160.493 1097.93 160.787 1098.28 161.24C1098.63 161.667 1098.84 161.96 1098.92 162.12C1099.03 162.28 1099.24 162.613 1099.56 163.12C1100.39 165.04 1100.8 167.133 1100.8 169.4L1101.56 172.68C1101.56 172.76 1101.64 173.027 1101.8 173.48C1101.99 173.933 1102.08 174.173 1102.08 174.2C1102.13 174.92 1101.96 175.427 1101.56 175.72C1101.48 175.747 1101.28 175.827 1100.96 175.96C1100.67 176.067 1100.44 176.12 1100.28 176.12C1100.01 176.12 1099.85 175.987 1099.8 175.72C1099.75 175.64 1099.56 175.347 1099.24 174.84C1098.95 174.307 1098.71 173.933 1098.52 173.72C1098.01 171.96 1097.68 170.267 1097.52 168.64C1097.44 168.453 1097.32 168.053 1097.16 167.44C1097.03 166.8 1096.89 166.36 1096.76 166.12C1096.2 165.48 1095.83 165.133 1095.64 165.08C1095.43 165.08 1095.29 165.093 1095.24 165.12ZM1109.59 168.48L1109.67 165.2C1109.67 164.427 1109.6 163.24 1109.47 161.64C1109.31 161.027 1109.16 160.667 1109.03 160.56C1107.27 160.693 1105.92 160.987 1104.99 161.44C1104.75 161.44 1104.4 161.533 1103.95 161.72C1103.5 161.907 1103.11 161.973 1102.79 161.92C1102.6 161.84 1102.42 161.72 1102.23 161.56C1102.04 161.4 1101.86 161.213 1101.67 161C1101.46 160.76 1101.28 160.587 1101.15 160.48C1101.04 160.213 1101 159.84 1101.03 159.36C1101.06 158.88 1101.15 158.52 1101.31 158.28L1102.63 157.12C1104.02 157.093 1106.08 156.827 1108.83 156.32L1109.11 156L1109.19 149.72C1109.8 149.053 1110.56 148.813 1111.47 149C1112.19 149.56 1112.59 150.253 1112.67 151.08C1112.75 151.24 1112.8 151.907 1112.83 153.08C1112.86 154.253 1112.96 154.933 1113.15 155.12C1113.18 155.12 1113.3 155.16 1113.51 155.24C1113.75 155.293 1113.88 155.333 1113.91 155.36C1114.44 155.307 1115.12 155.213 1115.95 155.08C1116.78 154.92 1117.38 154.827 1117.75 154.8C1118.12 154.773 1118.8 154.787 1119.79 154.84L1121.63 154.92C1122.78 155.08 1123.2 155.747 1122.91 156.92C1122.46 157.373 1122.11 157.627 1121.87 157.68C1121.26 157.733 1120.63 157.813 1119.99 157.92C1119.35 158.027 1118.55 158.2 1117.59 158.44C1116.66 158.653 1116.03 158.787 1115.71 158.84L1115.63 158.88C1114.94 158.907 1114.15 159.08 1113.27 159.4L1113.07 159.68C1113.07 160 1113.04 160.533 1112.99 161.28C1112.96 162 1112.96 162.627 1112.99 163.16C1113.02 163.667 1113.1 164.187 1113.23 164.72C1113.23 169.387 1113.47 172.293 1113.95 173.44C1114.48 173.92 1114.96 174.173 1115.39 174.2C1115.63 174.2 1115.94 174.16 1116.31 174.08C1116.42 174.053 1116.58 174.013 1116.79 173.96C1117 173.907 1117.15 173.88 1117.23 173.88C1117.31 173.853 1117.43 173.813 1117.59 173.76C1117.75 173.707 1117.86 173.667 1117.91 173.64C1117.99 173.613 1118.08 173.573 1118.19 173.52C1118.32 173.44 1118.42 173.36 1118.47 173.28C1118.55 173.2 1118.64 173.107 1118.75 173C1118.86 172.893 1118.95 172.773 1119.03 172.64C1119.14 172.507 1119.24 172.36 1119.35 172.2C1119.46 172.013 1119.58 171.813 1119.71 171.6C1119.68 171.467 1119.72 171.147 1119.83 170.64C1119.94 170.133 1120.02 169.813 1120.07 169.68C1120.36 168.853 1120.9 168.453 1121.67 168.48C1122.04 168.427 1122.32 168.493 1122.51 168.68C1122.7 168.867 1122.87 169.2 1123.03 169.68L1123.23 170.36C1123.04 171.667 1122.84 172.48 1122.63 172.8C1122.1 173.867 1121.68 174.6 1121.39 175C1121.12 175.4 1120.63 175.813 1119.91 176.24C1119.19 176.693 1118.08 177.16 1116.59 177.64C1116.51 177.667 1116.2 177.773 1115.67 177.96C1115.14 178.173 1114.72 178.28 1114.43 178.28C1113.2 178.227 1112.3 177.827 1111.71 177.08C1111.63 176.92 1111.39 176.507 1110.99 175.84C1110.59 175.147 1110.31 174.547 1110.15 174.04C1109.99 173.507 1109.95 172.947 1110.03 172.36C1110 171.88 1109.94 171.187 1109.83 170.28C1109.72 169.373 1109.66 168.8 1109.63 168.56C1109.6 168.533 1109.59 168.507 1109.59 168.48ZM1149.17 170.16C1149.97 169.147 1150.67 168.44 1151.29 168.04C1151.9 167.64 1152.74 167.333 1153.81 167.12C1153.99 167.12 1154.79 167.08 1156.21 167C1157.62 166.893 1158.49 166.907 1158.81 167.04C1159.61 167.04 1160.01 167 1160.01 166.92C1160.65 166.2 1161.37 165.013 1162.17 163.36C1162.99 161.707 1163.55 159.987 1163.85 158.2C1163.93 157.613 1163.89 157.093 1163.73 156.64C1163.57 156.187 1163.26 155.8 1162.81 155.48C1162.38 155.16 1161.99 154.92 1161.65 154.76C1161.3 154.573 1160.81 154.36 1160.17 154.12C1159.53 154.12 1159.05 154.133 1158.73 154.16C1158.41 154.187 1157.99 154.253 1157.49 154.36C1156.98 154.44 1156.57 154.573 1156.25 154.76C1155.95 154.947 1155.63 155.213 1155.29 155.56C1154.94 155.907 1154.65 156.333 1154.41 156.84C1154.22 157.613 1154.1 158.053 1154.05 158.16C1154.02 158.213 1153.99 158.293 1153.97 158.4C1153.94 158.48 1153.91 158.533 1153.89 158.56C1153.89 158.587 1153.86 158.64 1153.81 158.72C1153.78 158.8 1153.75 158.84 1153.73 158.84C1153.73 158.84 1153.7 158.867 1153.65 158.92C1153.59 158.973 1153.54 159 1153.49 159C1153.46 158.973 1153.41 158.987 1153.33 159.04C1153.25 159.067 1153.17 159.067 1153.09 159.04C1153.03 159.013 1152.94 159.013 1152.81 159.04C1152.27 159.173 1151.71 159.053 1151.13 158.68C1150.54 158.307 1150.21 157.827 1150.13 157.24C1149.62 155.96 1149.89 154.867 1150.93 153.96C1151.86 153.027 1152.63 152.373 1153.25 152C1153.89 151.627 1154.93 151.187 1156.37 150.68C1157.81 150.493 1158.95 150.4 1159.81 150.4C1161.33 150.4 1162.5 150.627 1163.33 151.08C1164.63 151.773 1165.51 152.347 1165.97 152.8C1167.46 154.267 1168.02 156.427 1167.65 159.28C1167.43 160.933 1167.09 162.32 1166.61 163.44C1166.13 164.56 1165.33 166.013 1164.21 167.8C1164.58 167.88 1164.91 167.973 1165.21 168.08C1165.53 168.16 1165.85 168.28 1166.17 168.44C1166.49 168.573 1166.74 168.68 1166.93 168.76C1167.11 168.84 1167.37 169 1167.69 169.24C1168.03 169.453 1168.27 169.6 1168.41 169.68C1168.54 169.76 1168.79 169.947 1169.17 170.24C1169.57 170.533 1169.83 170.72 1169.97 170.8C1170.02 170.827 1170.18 170.947 1170.45 171.16C1170.71 171.373 1170.89 171.52 1170.97 171.6C1171.05 171.653 1171.21 171.787 1171.45 172C1171.69 172.187 1171.85 172.347 1171.93 172.48C1172.03 172.587 1172.15 172.747 1172.29 172.96C1172.45 173.147 1172.55 173.333 1172.61 173.52C1172.66 173.68 1172.7 173.88 1172.73 174.12C1172.78 174.333 1172.79 174.547 1172.77 174.76C1172.95 175.293 1172.7 175.84 1172.01 176.4C1171.63 176.453 1171.21 176.453 1170.73 176.4C1170.09 175.627 1169.25 174.813 1168.21 173.96C1166.05 172.333 1163.85 171.613 1161.61 171.8C1161.45 172.227 1161.27 172.573 1161.09 172.84C1160.9 173.08 1160.61 173.387 1160.21 173.76C1159.83 174.107 1159.51 174.427 1159.25 174.72C1158.95 175.12 1158.51 175.467 1157.93 175.76C1157.34 176.027 1156.82 176.133 1156.37 176.08C1155.57 176.16 1154.89 176.2 1154.33 176.2C1153.29 176.2 1152.19 175.933 1151.05 175.4C1150.51 175.053 1150.14 174.773 1149.93 174.56C1149.74 174.347 1149.43 174.08 1149.01 173.76C1148.45 172.773 1148.5 171.573 1149.17 170.16ZM1153.77 172.48L1155.01 172.56C1156.02 172.347 1156.69 171.933 1157.01 171.32C1157.06 171.213 1157.1 171.147 1157.13 171.12C1157.18 171.093 1157.22 171.093 1157.25 171.12C1157.27 171.12 1157.3 171.147 1157.33 171.2V171.08L1158.01 170.56C1157.66 170.373 1157.19 170.28 1156.61 170.28C1155.94 170.28 1155.26 170.413 1154.57 170.68C1153.9 170.947 1153.38 171.307 1153.01 171.76L1153.77 172.48Z" fill="black"/>
<path d="M377.369 407.274C385.405 402.69 385.386 391.011 401.589 372.403ZM377.369 407.274C386.275 393.89 396.951 380.694 401.589 372.403ZM377 436.686C392.03 419.001 402.185 395.749 421.711 372.32ZM377 436.686C389.512 421.015 399.961 404.633 421.711 372.32ZM393 443.674C411.626 420.091 414.527 415.957 441.833 372.237ZM393 443.674C407.273 419.581 406.7 422.104 441.833 372.237ZM410.5 443.674C431.067 412.498 420.443 434.98 461.955 372.166ZM410.5 443.674C444.024 398.45 442.013 404.254 461.955 372.166ZM427.5 448C465.548 402.598 452.121 424.722 482.077 372.083ZM427.5 448C450.774 410.582 427.929 449.135 482.077 372.083ZM449 448C491.335 382.924 467.482 422.377 502.198 372ZM449 448C485.467 391.807 461.482 428.157 502.198 372ZM469 448C494.46 408.888 459.352 466.926 521.705 372.805ZM469 448C513.56 378.659 493.917 404.254 521.705 372.805ZM485.883 448.332C522.975 398.713 493.16 438.995 541.827 372.723ZM485.883 448.332C531.276 389.391 506.675 424.983 541.827 372.723ZM506.005 448.249C533.187 410.274 490.292 476.141 561.949 372.651ZM506.005 448.249C546.835 389.77 520.891 430.787 561.949 372.651ZM526.127 448.166C570.346 387.744 545.537 424.876 582.071 372.569ZM526.127 448.166C559.102 403.569 528.548 451.338 582.071 372.569ZM546.249 448.083C583.407 396.391 552.986 445.451 600.328 375.163ZM546.249 448.083C587.07 393.525 562.763 434.056 600.328 375.163ZM566.37 448C602.667 396.462 581.679 431.32 622.5 372.805ZM566.37 448C596.231 409.67 561.481 461.074 622.5 372.805ZM585.868 448.817C619.505 401.508 592.692 441.234 641 372.805ZM585.868 448.817C619.6 394.922 606.435 423.632 641 372.805ZM605.999 448.734C638.955 404.15 635.982 407.298 659 372.805ZM605.999 448.734C640.63 402.823 634.061 409.632 659 372.805Z" stroke="#4A81D4" stroke-opacity="0.4" stroke-width="4" stroke-linecap="round"/>
<path d="M630 448.083C638.035 443.499 665.386 391.011 681.589 372.403ZM630 448.083C638.906 434.698 676.951 380.694 681.589 372.403ZM651 448C666.03 430.315 682.185 395.749 701.711 372.32ZM651 448C663.512 432.329 679.961 404.633 701.711 372.32ZM670 448.083C688.626 424.499 694.527 415.957 721.833 372.237ZM670 448.083C684.273 423.99 686.7 422.104 721.833 372.237ZM689 448C709.567 416.824 700.443 434.98 741.955 372.166ZM689 448C722.524 402.776 722.013 404.254 741.955 372.166ZM707.5 448C745.548 402.598 732.121 424.722 762.077 372.083ZM707.5 448C730.774 410.582 707.929 449.135 762.077 372.083ZM729 448C771.335 382.924 747.482 422.377 782.198 372ZM729 448C765.467 391.807 741.482 428.157 782.198 372ZM749 448C774.46 408.888 739.352 466.926 801.705 372.805ZM749 448C793.56 378.659 773.917 404.254 801.705 372.805ZM765.883 448.332C802.975 398.713 773.16 438.995 821.827 372.723ZM765.883 448.332C811.276 389.391 786.675 424.983 821.827 372.723ZM786.005 448.249C813.187 410.274 770.292 476.141 841.949 372.651ZM786.005 448.249C826.835 389.77 800.891 430.787 841.949 372.651ZM806.127 448.166C850.346 387.744 825.537 424.876 862.071 372.569ZM806.127 448.166C839.102 403.569 808.548 451.338 862.071 372.569ZM826.249 448.083C863.407 396.391 832.986 445.451 880.328 375.163ZM826.249 448.083C867.07 393.525 842.763 434.056 880.328 375.163ZM846.37 448C882.667 396.462 861.679 431.32 902.5 372.805ZM846.37 448C876.231 409.67 841.481 461.074 902.5 372.805ZM865.868 448.817C899.505 401.508 872.692 441.234 921 372.805ZM865.868 448.817C899.6 394.922 886.435 423.632 921 372.805ZM885.999 448.734C918.955 404.15 915.982 407.298 939 372.805ZM885.999 448.734C920.63 402.823 914.061 409.632 939 372.805Z" stroke="#4A81D4" stroke-opacity="0.4" stroke-width="4" stroke-linecap="round"/>
<path d="M908 448C916.035 443.416 939.386 391.011 955.589 372.403ZM908 448C916.906 434.615 950.951 380.694 955.589 372.403ZM926 448C941.03 430.315 956.185 395.749 975.711 372.32ZM926 448C938.512 432.329 953.961 404.633 975.711 372.32ZM944.5 448C963.126 424.417 968.527 415.957 995.833 372.237ZM944.5 448C958.773 423.907 960.7 422.104 995.833 372.237ZM960 448C980.567 416.824 974.443 434.98 1015.95 372.166ZM960 448C993.524 402.776 996.013 404.254 1015.95 372.166ZM981.5 448C1019.55 402.598 1006.12 424.722 1036.08 372.083ZM981.5 448C1004.77 410.582 981.929 449.135 1036.08 372.083ZM1003 448C1045.34 382.924 1021.48 422.377 1056.2 372ZM1003 448C1039.47 391.807 1015.48 428.157 1056.2 372ZM1023 448C1048.46 408.888 1013.35 466.926 1075.71 372.805ZM1023 448C1067.56 378.659 1047.92 404.254 1075.71 372.805ZM1039.88 448.332C1076.97 398.713 1047.16 438.995 1095.83 372.723ZM1039.88 448.332C1085.28 389.391 1060.68 424.983 1095.83 372.723ZM1060 448.249C1087.19 410.274 1044.29 476.141 1115.95 372.651ZM1060 448.249C1100.84 389.77 1074.89 430.787 1115.95 372.651ZM1080.13 448.166C1124.35 387.744 1099.54 424.876 1136.07 372.569ZM1080.13 448.166C1113.1 403.569 1082.55 451.338 1136.07 372.569ZM1100.25 448.083C1137.41 396.391 1106.99 445.451 1154.33 375.163ZM1100.25 448.083C1141.07 393.525 1116.76 434.056 1154.33 375.163ZM1120.37 448C1156.67 396.462 1135.68 431.32 1176.5 372.805ZM1120.37 448C1150.23 409.67 1115.48 461.074 1176.5 372.805ZM1139.87 448.817C1173.51 401.508 1146.69 441.234 1195 372.805ZM1139.87 448.817C1173.6 394.922 1160.44 423.632 1195 372.805ZM1160 448.734C1192.95 404.15 1189.98 407.298 1213 372.805ZM1160 448.734C1194.63 402.823 1188.06 409.632 1213 372.805Z" stroke="#4A81D4" stroke-opacity="0.4" stroke-width="4" stroke-linecap="round"/>
<path d="M410.098 369.483C485.479 366.15 1133.57 366.195 1181.59 369.483M410.098 369.483C462.905 370.554 1083.09 371.632 1181.59 369.483M410.098 369.483C390.049 370.643 376.806 377.058 379.12 387.254M410.098 369.483C392.266 371.726 374.986 376.747 379.12 387.254M1181.59 369.483C1203.12 368.888 1215.54 376.086 1212.56 387.254M1181.59 369.483C1204.69 370.538 1210.46 375.952 1212.56 387.254M1212.56 387.254C1211.46 397.567 1213.44 405.181 1212.56 433.355M1212.56 387.254C1213.7 402.332 1211.01 419.61 1212.56 433.355M1212.56 433.355C1212.16 445.506 1202.7 451.343 1181.59 451.127M1212.56 433.355C1213.81 444.196 1202.99 452.332 1181.59 451.127M1181.59 451.127C1120.37 451.36 488.906 452.137 410.098 451.127M1181.59 451.127C1125.81 452.01 502.043 452.543 410.098 451.127M410.098 451.127C390.93 450.432 380.33 443.529 379.12 433.355M410.098 451.127C390.127 450.066 381.521 443.074 379.12 433.355M379.12 433.355C379.226 421.942 382.431 411.085 379.12 387.254M379.12 433.355C376.981 417.433 378.442 403.332 379.12 387.254" stroke="black" stroke-width="3" stroke-linecap="round"/>
<path d="M640.524 418.84C640.711 418.707 641.004 418.613 641.404 418.56C641.804 418.48 642.297 418.427 642.884 418.4C643.471 418.347 643.791 418.32 643.844 418.32L644.964 418.28C645.551 418.307 645.951 418.347 646.164 418.4L647.044 418.28L648.164 418.12C648.911 418.013 649.364 417.96 649.524 417.96L649.484 417.72C649.031 417.72 648.697 417.64 648.484 417.48C648.057 417.187 647.697 416.76 647.404 416.2C647.111 415.613 646.911 415.16 646.804 414.84C646.724 414.52 646.604 413.893 646.444 412.96C646.311 412 646.244 411.493 646.244 411.44V411.04C646.191 409.973 646.217 408.147 646.324 405.56C646.457 402.947 646.457 401.107 646.324 400.04C646.297 399.773 646.471 399.507 646.844 399.24C647.244 398.947 647.457 398.773 647.484 398.72L647.444 398.68L647.324 398.52C645.271 397.88 643.697 397.293 642.604 396.76C641.537 396.227 640.817 395.733 640.444 395.28C640.071 394.8 639.831 394.213 639.724 393.52C640.097 392.72 640.644 392.32 641.364 392.32C641.657 392.32 641.951 392.373 642.244 392.48L642.884 392.84C643.444 392.947 643.764 393.013 643.844 393.04C647.497 394.08 651.124 395.52 654.724 397.36C658.351 399.173 661.257 401.227 663.444 403.52C665.337 405.733 666.564 407.36 667.124 408.4C668.084 410.133 668.404 411.773 668.084 413.32C667.924 413.747 667.751 414.133 667.564 414.48C667.377 414.827 667.137 415.16 666.844 415.48C666.577 415.8 666.337 416.08 666.124 416.32C665.937 416.533 665.644 416.773 665.244 417.04C664.844 417.28 664.551 417.467 664.364 417.6C664.177 417.733 663.817 417.92 663.284 418.16C662.777 418.373 662.431 418.52 662.244 418.6C662.084 418.68 661.684 418.853 661.044 419.12C660.431 419.36 660.057 419.507 659.924 419.56C658.591 419.987 657.244 420.32 655.884 420.56C654.551 420.8 652.937 421.027 651.044 421.24C649.177 421.453 647.777 421.627 646.844 421.76L644.604 422.08L642.484 422.36H641.964C641.111 422.413 640.457 421.893 640.004 420.8C639.684 420.107 639.857 419.453 640.524 418.84ZM650.964 416.92L650.484 417.44L652.004 417.4C656.271 417.107 659.777 416.12 662.524 414.44C662.631 414.36 662.911 414.093 663.364 413.64C663.817 413.16 664.111 412.827 664.244 412.64C664.404 412.48 664.484 412.307 664.484 412.12L664.444 411.24C664.284 410.333 663.871 409.387 663.204 408.4C662.537 407.387 661.951 406.613 661.444 406.08C660.937 405.547 660.164 404.8 659.124 403.84C655.524 401.387 652.244 399.773 649.284 399H649.004C649.137 399.133 649.257 399.293 649.364 399.48C649.684 400.253 649.857 401.08 649.884 401.96C649.911 402.84 649.871 403.693 649.764 404.52C649.817 406.947 649.911 409.053 650.044 410.84C650.577 412.813 650.937 414 651.124 414.4C651.257 415.12 651.284 415.787 651.204 416.4C651.204 416.64 651.124 416.813 650.964 416.92ZM674.335 409.6C676.255 407.147 678.362 405.547 680.655 404.8C682.122 404.613 682.895 404.52 682.975 404.52C684.628 404.573 686.068 405.08 687.295 406.04C688.522 406.973 689.175 408.253 689.255 409.88C689.282 411.293 688.708 412.587 687.535 413.76C686.388 414.933 685.108 415.573 683.695 415.68C683.162 415.867 682.588 415.96 681.975 415.96C680.588 415.96 679.055 415.453 677.375 414.44C676.868 413.933 676.535 413.68 676.375 413.68C676.268 413.627 676.175 413.627 676.095 413.68C675.215 415.013 674.788 416.027 674.815 416.72C675.108 418.453 676.042 419.92 677.615 421.12C679.188 422.347 680.855 422.907 682.615 422.8C682.882 422.907 683.348 422.907 684.015 422.8C684.682 422.72 685.122 422.653 685.335 422.6C685.575 422.547 686.028 422.413 686.695 422.2C687.388 422.013 687.868 421.88 688.135 421.8C689.068 421.427 690.308 421.187 691.855 421.08H692.135C692.322 421.027 692.495 421.067 692.655 421.2C692.815 421.333 692.908 421.533 692.935 421.8V423.28C691.975 424.373 690.788 424.96 689.375 425.04C689.082 425.12 688.548 425.267 687.775 425.48C687.028 425.693 686.455 425.84 686.055 425.92C685.682 426.027 685.175 426.12 684.535 426.2C683.922 426.307 683.362 426.347 682.855 426.32C680.508 426.427 678.255 425.827 676.095 424.52C674.122 423.507 672.602 421.747 671.535 419.24C671.135 417.667 671.202 416.133 671.735 414.64C672.268 413.147 673.135 411.467 674.335 409.6ZM677.455 411.52C678.015 411.52 678.495 411.56 678.895 411.64C679.135 411.773 679.362 411.88 679.575 411.96C679.815 412.013 680.095 412.067 680.415 412.12C680.762 412.147 680.988 412.16 681.095 412.16C681.202 412.16 681.482 412.16 681.935 412.16C682.415 412.16 682.668 412.16 682.695 412.16C684.082 411.733 685.002 411.133 685.455 410.36C685.535 410.067 685.535 409.813 685.455 409.6C685.402 409.36 685.255 409.16 685.015 409C684.775 408.84 684.548 408.72 684.335 408.64C684.122 408.56 683.828 408.467 683.455 408.36C683.108 408.227 682.855 408.133 682.695 408.08C682.055 408.08 681.402 408.267 680.735 408.64C680.068 408.987 679.535 409.333 679.135 409.68C678.735 410.027 678.228 410.507 677.615 411.12C677.615 411.147 677.588 411.213 677.535 411.32C677.482 411.4 677.455 411.467 677.455 411.52ZM695.25 410.36C695.037 410.067 694.783 409.813 694.49 409.6C692.09 409.013 690.997 408.08 691.21 406.8C691.13 406.267 691.21 405.787 691.45 405.36C691.69 404.933 692.05 404.733 692.53 404.76C692.797 404.733 693.17 404.8 693.65 404.96C694.13 405.093 694.53 405.107 694.85 405C694.85 404.84 694.837 404.12 694.81 402.84C694.783 401.56 694.77 400.613 694.77 400C694.743 399.387 694.81 398.467 694.97 397.24C695.13 396.013 695.223 395.24 695.25 394.92C695.197 394.387 695.25 393.893 695.41 393.44C695.57 392.96 695.863 392.4 696.29 391.76C696.717 391.12 696.957 390.747 697.01 390.64C697.597 389.92 698.437 389.56 699.53 389.56C700.037 389.56 700.717 389.667 701.57 389.88C702.61 390.307 703.637 390.96 704.65 391.84C705.69 392.693 706.797 393.76 707.97 395.04C709.17 396.293 710.077 397.187 710.69 397.72C711.437 398.707 711.85 399.293 711.93 399.48C712.063 399.693 712.143 399.92 712.17 400.16C712.223 400.4 712.237 400.693 712.21 401.04C712.21 401.387 712.21 401.627 712.21 401.76C712.13 401.867 712.01 402.107 711.85 402.48C711.717 402.827 711.557 403.093 711.37 403.28C711.21 403.44 710.983 403.453 710.69 403.32C710.077 403.48 709.57 403.133 709.17 402.28C709.01 401.72 708.93 401.12 708.93 400.48C708.797 400.347 708.33 399.853 707.53 399C706.757 398.12 706.29 397.6 706.13 397.44C705.943 397.307 705.263 396.72 704.09 395.68C702.917 394.64 702.077 394.053 701.57 393.92C700.743 393.68 700.023 393.827 699.41 394.36C698.823 394.867 698.45 395.56 698.29 396.44C697.89 400.013 697.89 403.213 698.29 406.04L698.81 406.32C700.01 406.587 701.61 406.853 703.61 407.12C705.637 407.387 707.157 407.627 708.17 407.84C709.823 408.373 710.997 408.96 711.69 409.6C711.797 410 711.717 410.387 711.45 410.76C711.21 411.133 710.863 411.333 710.41 411.36C709.983 411.467 709.49 411.52 708.93 411.52C708.21 411.52 707.117 411.373 705.65 411.08C704.21 410.787 703.357 410.627 703.09 410.6C702.157 410.413 701.383 410.32 700.77 410.32C700.103 410.32 699.45 410.413 698.81 410.6V410.92L698.77 411.8V412.12C698.663 413.213 698.797 414.613 699.17 416.32C699.57 418.027 699.783 419.253 699.81 420C699.81 420.187 699.717 420.373 699.53 420.56C699.343 420.72 699.103 420.893 698.81 421.08C698.543 421.267 698.37 421.387 698.29 421.44C698.023 421.387 697.783 421.293 697.57 421.16C697.357 421.053 697.183 420.947 697.05 420.84C696.943 420.733 696.823 420.56 696.69 420.32C696.583 420.053 696.503 419.853 696.45 419.72C696.423 419.587 696.357 419.347 696.25 419C696.143 418.627 696.063 418.36 696.01 418.2C695.503 416.387 695.25 413.773 695.25 410.36ZM727.863 415.24C727.65 415.4 727.396 415.733 727.103 416.24C725.69 417.787 724.303 419.027 722.943 419.96C721.61 420.867 720.156 421.307 718.583 421.28C717.756 421.387 716.903 421.28 716.023 420.96C715.143 420.613 714.45 420.133 713.943 419.52C713.703 419.147 713.53 418.893 713.423 418.76C713.343 418.6 713.21 418.36 713.023 418.04C712.836 417.693 712.703 417.413 712.623 417.2C712.57 416.987 712.503 416.733 712.423 416.44C712.343 416.147 712.303 415.867 712.303 415.6C712.303 415.307 712.343 415.013 712.423 414.72C712.45 413.813 712.743 412.893 713.303 411.96C713.89 411.027 714.476 410.28 715.063 409.72C715.65 409.16 716.41 408.493 717.343 407.72C717.53 407.587 717.663 407.48 717.743 407.4C718.863 406.493 720.383 406.04 722.303 406.04C722.703 406.04 723.97 406.147 726.103 406.36C726.156 406.413 726.33 406.507 726.623 406.64C726.943 406.773 727.17 406.92 727.303 407.08C727.436 407.213 727.45 407.4 727.343 407.64L727.863 408.16C728.663 408.507 729.17 408.84 729.383 409.16C730.716 411.88 731.89 414.067 732.903 415.72C733.01 415.853 733.343 416.16 733.903 416.64C734.49 417.093 734.836 417.387 734.943 417.52C735.156 417.68 735.41 417.907 735.703 418.2C736.023 418.467 736.29 418.667 736.503 418.8C736.716 418.933 736.956 419.013 737.223 419.04C737.25 419.067 737.423 419.227 737.743 419.52C737.77 419.6 737.756 419.707 737.703 419.84C737.676 419.947 737.636 420.08 737.583 420.24C737.53 420.4 737.49 420.507 737.463 420.56C737.196 420.96 736.61 421.28 735.703 421.52C735.383 421.52 735.156 421.533 735.023 421.56C734.916 421.613 734.73 421.587 734.463 421.48C734.223 421.4 734.05 421.333 733.943 421.28C733.863 421.253 733.69 421.16 733.423 421C733.156 420.84 732.956 420.72 732.823 420.64L732.663 420.56C731.996 420 731.076 419.04 729.903 417.68C728.756 416.293 728.076 415.48 727.863 415.24ZM716.223 416.48C716.703 417.2 717.423 417.56 718.383 417.56C718.836 417.56 719.463 417.453 720.263 417.24C721.57 416.76 722.756 415.92 723.823 414.72C724.863 413.28 725.45 412.013 725.583 410.92C725.583 410.84 725.636 410.533 725.743 410C725.85 409.44 725.89 409.053 725.863 408.84C725.33 408.973 724.556 409.08 723.543 409.16C722.556 409.213 721.796 409.293 721.263 409.4C720.57 409.507 719.863 409.84 719.143 410.4C718.423 410.933 717.876 411.44 717.503 411.92C717.13 412.4 716.623 413.08 715.983 413.96C715.53 414.52 715.61 415.36 716.223 416.48ZM754.943 409.72L755.143 409.76C755.249 408.667 755.476 407.933 755.823 407.56C756.116 407.187 756.356 407 756.543 407C756.623 407 756.716 407 756.823 407C757.009 406.973 757.169 406.987 757.303 407.04C757.463 407.093 757.649 407.227 757.863 407.44C758.103 407.627 758.263 407.747 758.343 407.8C758.769 408.493 758.943 409.333 758.863 410.32C758.863 410.373 758.609 411 758.103 412.2C757.916 413.187 757.889 414.2 758.023 415.24C758.156 416.253 758.529 417.173 759.143 418C759.649 419.173 759.689 420.027 759.263 420.56C759.156 420.827 758.956 420.96 758.663 420.96C758.503 420.96 758.303 420.92 758.063 420.84C757.849 420.76 757.596 420.653 757.303 420.52C757.009 420.387 756.809 420.307 756.703 420.28C755.743 419.64 755.129 418.587 754.863 417.12C753.796 418.267 752.769 419.107 751.783 419.64C750.823 420.147 749.516 420.587 747.863 420.96C746.983 421.067 746.116 420.96 745.263 420.64C744.436 420.32 743.823 420 743.423 419.68C743.023 419.36 742.343 418.773 741.383 417.92C741.009 417.413 740.703 416.933 740.463 416.48C740.249 416.027 740.089 415.533 739.983 415C739.903 414.467 739.849 414.08 739.823 413.84C739.796 413.573 739.796 413.08 739.823 412.36C739.849 411.613 739.863 411.107 739.863 410.84C740.023 410.68 740.103 410.427 740.103 410.08V409.84C740.023 409.44 740.196 408.507 740.623 407.04C740.676 406.933 740.823 406.76 741.063 406.52C741.329 406.253 741.516 406.093 741.623 406.04C741.863 405.987 742.289 406.013 742.903 406.12C743.516 406.227 743.849 406.28 743.903 406.28C744.116 406.333 744.276 406.427 744.383 406.56C744.516 406.693 744.596 406.867 744.623 407.08C744.676 407.267 744.703 407.44 744.703 407.6C744.703 407.76 744.689 407.973 744.663 408.24C744.663 408.507 744.663 408.693 744.663 408.8C744.663 408.853 744.623 408.947 744.543 409.08L744.423 409.32C743.889 410.467 743.623 411.667 743.623 412.92C743.543 413.613 743.716 414.333 744.143 415.08C744.569 415.8 745.089 416.413 745.703 416.92C746.983 417.213 747.769 417.36 748.063 417.36C748.623 417.36 749.183 417.213 749.743 416.92C750.169 416.76 750.569 416.547 750.943 416.28C751.343 415.987 751.663 415.72 751.903 415.48C752.169 415.213 752.463 414.84 752.783 414.36C753.129 413.88 753.369 413.533 753.503 413.32C753.636 413.08 753.876 412.653 754.223 412.04C754.569 411.427 754.796 411.04 754.903 410.88C754.903 410.747 754.903 410.547 754.903 410.28C754.929 410.013 754.943 409.827 754.943 409.72ZM763.997 413.92C764.024 412.32 764.117 410.173 764.277 407.48C764.437 404.76 764.53 402.867 764.557 401.8C764.53 400.493 764.584 398.053 764.717 394.48C764.85 390.907 764.877 388.293 764.797 386.64C765.01 385.947 765.41 385.6 765.997 385.6C766.744 385.6 767.357 386.027 767.837 386.88C767.837 387.227 767.85 387.547 767.877 387.84L768.037 390.72C768.064 391.013 768.077 391.333 768.077 391.68C768.024 394.187 767.85 397.853 767.557 402.68C767.29 407.507 767.13 410.92 767.077 412.92C767.104 413.293 767.144 413.867 767.197 414.64C767.25 415.413 767.29 415.987 767.317 416.36C767.37 416.707 767.437 417.16 767.517 417.72C767.624 418.253 767.757 418.747 767.917 419.2C768.104 419.627 768.33 420.053 768.597 420.48C768.624 420.853 768.53 421.187 768.317 421.48C767.97 421.693 767.53 421.8 766.997 421.8C766.384 421.8 765.904 421.693 765.557 421.48C765.104 421 764.757 420.4 764.517 419.68C764.277 418.96 764.13 418.4 764.077 418C764.024 417.6 763.997 416.867 763.997 415.8C763.997 414.707 763.997 414.08 763.997 413.92ZM778.185 413.48L778.265 410.2C778.265 409.427 778.198 408.24 778.065 406.64C777.905 406.027 777.758 405.667 777.625 405.56C775.865 405.693 774.518 405.987 773.585 406.44C773.345 406.44 772.998 406.533 772.545 406.72C772.092 406.907 771.705 406.973 771.385 406.92C771.198 406.84 771.012 406.72 770.825 406.56C770.638 406.4 770.452 406.213 770.265 406C770.052 405.76 769.878 405.587 769.745 405.48C769.638 405.213 769.598 404.84 769.625 404.36C769.652 403.88 769.745 403.52 769.905 403.28L771.225 402.12C772.612 402.093 774.678 401.827 777.425 401.32L777.705 401L777.785 394.72C778.398 394.053 779.158 393.813 780.065 394C780.785 394.56 781.185 395.253 781.265 396.08C781.345 396.24 781.398 396.907 781.425 398.08C781.452 399.253 781.558 399.933 781.745 400.12C781.772 400.12 781.892 400.16 782.105 400.24C782.345 400.293 782.478 400.333 782.505 400.36C783.038 400.307 783.718 400.213 784.545 400.08C785.372 399.92 785.972 399.827 786.345 399.8C786.718 399.773 787.398 399.787 788.385 399.84L790.225 399.92C791.372 400.08 791.798 400.747 791.505 401.92C791.052 402.373 790.705 402.627 790.465 402.68C789.852 402.733 789.225 402.813 788.585 402.92C787.945 403.027 787.145 403.2 786.185 403.44C785.252 403.653 784.625 403.787 784.305 403.84L784.225 403.88C783.532 403.907 782.745 404.08 781.865 404.4L781.665 404.68C781.665 405 781.638 405.533 781.585 406.28C781.558 407 781.558 407.627 781.585 408.16C781.612 408.667 781.692 409.187 781.825 409.72C781.825 414.387 782.065 417.293 782.545 418.44C783.078 418.92 783.558 419.173 783.985 419.2C784.225 419.2 784.532 419.16 784.905 419.08C785.012 419.053 785.172 419.013 785.385 418.96C785.598 418.907 785.745 418.88 785.825 418.88C785.905 418.853 786.025 418.813 786.185 418.76C786.345 418.707 786.452 418.667 786.505 418.64C786.585 418.613 786.678 418.573 786.785 418.52C786.918 418.44 787.012 418.36 787.065 418.28C787.145 418.2 787.238 418.107 787.345 418C787.452 417.893 787.545 417.773 787.625 417.64C787.732 417.507 787.838 417.36 787.945 417.2C788.052 417.013 788.172 416.813 788.305 416.6C788.278 416.467 788.318 416.147 788.425 415.64C788.532 415.133 788.612 414.813 788.665 414.68C788.958 413.853 789.492 413.453 790.265 413.48C790.638 413.427 790.918 413.493 791.105 413.68C791.292 413.867 791.465 414.2 791.625 414.68L791.825 415.36C791.638 416.667 791.438 417.48 791.225 417.8C790.692 418.867 790.278 419.6 789.985 420C789.718 420.4 789.225 420.813 788.505 421.24C787.785 421.693 786.678 422.16 785.185 422.64C785.105 422.667 784.798 422.773 784.265 422.96C783.732 423.173 783.318 423.28 783.025 423.28C781.798 423.227 780.892 422.827 780.305 422.08C780.225 421.92 779.985 421.507 779.585 420.84C779.185 420.147 778.905 419.547 778.745 419.04C778.585 418.507 778.545 417.947 778.625 417.36C778.598 416.88 778.532 416.187 778.425 415.28C778.318 414.373 778.252 413.8 778.225 413.56C778.198 413.533 778.185 413.507 778.185 413.48ZM817.882 401.64C819.669 399.213 821.442 397.613 823.202 396.84C824.242 396.2 825.295 395.933 826.362 396.04C826.522 396.04 826.762 396.053 827.082 396.08C827.402 396.08 827.629 396.08 827.762 396.08H828.002C828.055 396.08 828.242 396.133 828.562 396.24C828.882 396.32 829.069 396.347 829.122 396.32H829.282C829.309 396.24 829.415 396.067 829.602 395.8C829.815 395.533 829.962 395.373 830.042 395.32C830.602 395.16 831.095 395.413 831.522 396.08C831.709 396.48 831.909 397.107 832.122 397.96C832.202 398.173 832.349 398.467 832.562 398.84C833.762 400.36 834.362 402.173 834.362 404.28C834.362 404.387 834.349 404.64 834.322 405.04C834.322 405.413 834.322 405.627 834.322 405.68C834.002 406.533 833.495 406.96 832.802 406.96C831.762 406.72 831.175 406.547 831.042 406.44L830.962 406.36C830.909 406.333 830.869 406.307 830.842 406.28L830.802 406.2C830.429 405.24 830.082 404.053 829.762 402.64C829.629 402.053 829.469 401.64 829.282 401.4C829.122 401.267 828.869 401.013 828.522 400.64C828.202 400.267 827.895 399.987 827.602 399.8C827.309 399.613 826.975 399.547 826.602 399.6C826.149 399.6 825.695 399.68 825.242 399.84C824.815 399.973 824.455 400.133 824.162 400.32C823.869 400.48 823.509 400.76 823.082 401.16C822.682 401.533 822.375 401.827 822.162 402.04C821.975 402.253 821.669 402.627 821.242 403.16C820.815 403.667 820.535 404 820.402 404.16C817.975 408.24 817.815 411.36 819.922 413.52C821.335 415.28 823.522 416.547 826.482 417.32C826.749 417.427 826.895 417.493 826.922 417.52C827.002 417.52 827.589 417.48 828.682 417.4C829.802 417.293 830.709 417.173 831.402 417.04C831.855 416.933 832.335 416.88 832.842 416.88C833.215 416.88 833.749 416.933 834.442 417.04C835.162 417.12 835.602 417.24 835.762 417.4C835.975 417.667 836.082 417.973 836.082 418.32C836.082 418.64 835.975 418.92 835.762 419.16C835.175 419.64 834.762 419.893 834.522 419.92C832.495 420.587 830.829 420.973 829.522 421.08C827.922 421.08 826.229 420.813 824.442 420.28C822.655 419.72 821.149 418.987 819.922 418.08C818.749 417.413 817.709 416.507 816.802 415.36C815.922 414.213 815.349 413.013 815.082 411.76C814.495 408.933 815.429 405.56 817.882 401.64ZM852.424 411.48C851.678 411.8 850.958 412.24 850.264 412.8C849.598 413.36 849.104 413.827 848.784 414.2C848.491 414.573 847.984 415.253 847.264 416.24C846.571 417.227 846.131 417.84 845.944 418.08C845.491 419.307 844.824 420.307 843.944 421.08C843.571 421.267 843.238 421.36 842.944 421.36C842.358 421.36 841.931 421.107 841.664 420.6C841.611 420.52 841.518 420.4 841.384 420.24C841.251 420.08 841.131 419.933 841.024 419.8L840.904 419.6C840.904 419.52 840.891 419.347 840.864 419.08C840.864 418.787 840.864 418.56 840.864 418.4C840.864 418.213 840.878 418.013 840.904 417.8C840.958 417.587 841.038 417.427 841.144 417.32C841.251 416.44 841.318 415.493 841.344 414.48C841.398 413.467 841.411 412.627 841.384 411.96C841.358 411.267 841.318 410.307 841.264 409.08C841.211 407.853 841.171 406.987 841.144 406.48C841.198 405.787 841.158 404.68 841.024 403.16C840.891 401.64 840.851 400.547 840.904 399.88V397.6C840.878 397.28 841.024 397.093 841.344 397.04C841.691 396.987 841.971 397 842.184 397.08C842.211 397.107 842.331 397.227 842.544 397.44C842.758 397.653 842.944 397.867 843.104 398.08C843.291 398.267 843.398 398.44 843.424 398.6C844.144 402.04 844.491 404.32 844.464 405.44C844.464 405.707 844.504 406.933 844.584 409.12C844.664 411.307 844.704 412.52 844.704 412.76V413.52H844.944C845.158 413.333 846.051 412.44 847.624 410.84C849.198 409.213 850.504 408.093 851.544 407.48C852.024 407.293 852.558 407.2 853.144 407.2C854.024 407.2 854.744 407.533 855.304 408.2C856.211 409.187 856.878 410.28 857.304 411.48C857.731 412.653 858.078 414.093 858.344 415.8C859.118 418.173 859.464 419.933 859.384 421.08L859.264 421.32C859.211 421.453 859.158 421.547 859.104 421.6C858.944 421.787 858.718 421.88 858.424 421.88C858.211 421.88 857.851 421.787 857.344 421.6C856.544 420.613 855.864 419.36 855.304 417.84C854.664 415.947 854.331 414.853 854.304 414.56C853.878 412.747 853.251 411.72 852.424 411.48ZM875.91 415.24C875.697 415.4 875.443 415.733 875.15 416.24C873.737 417.787 872.35 419.027 870.99 419.96C869.657 420.867 868.203 421.307 866.63 421.28C865.803 421.387 864.95 421.28 864.07 420.96C863.19 420.613 862.497 420.133 861.99 419.52C861.75 419.147 861.577 418.893 861.47 418.76C861.39 418.6 861.257 418.36 861.07 418.04C860.883 417.693 860.75 417.413 860.67 417.2C860.617 416.987 860.55 416.733 860.47 416.44C860.39 416.147 860.35 415.867 860.35 415.6C860.35 415.307 860.39 415.013 860.47 414.72C860.497 413.813 860.79 412.893 861.35 411.96C861.937 411.027 862.523 410.28 863.11 409.72C863.697 409.16 864.457 408.493 865.39 407.72C865.577 407.587 865.71 407.48 865.79 407.4C866.91 406.493 868.43 406.04 870.35 406.04C870.75 406.04 872.017 406.147 874.15 406.36C874.203 406.413 874.377 406.507 874.67 406.64C874.99 406.773 875.217 406.92 875.35 407.08C875.483 407.213 875.497 407.4 875.39 407.64L875.91 408.16C876.71 408.507 877.217 408.84 877.43 409.16C878.763 411.88 879.937 414.067 880.95 415.72C881.057 415.853 881.39 416.16 881.95 416.64C882.537 417.093 882.883 417.387 882.99 417.52C883.203 417.68 883.457 417.907 883.75 418.2C884.07 418.467 884.337 418.667 884.55 418.8C884.763 418.933 885.003 419.013 885.27 419.04C885.297 419.067 885.47 419.227 885.79 419.52C885.817 419.6 885.803 419.707 885.75 419.84C885.723 419.947 885.683 420.08 885.63 420.24C885.577 420.4 885.537 420.507 885.51 420.56C885.243 420.96 884.657 421.28 883.75 421.52C883.43 421.52 883.203 421.533 883.07 421.56C882.963 421.613 882.777 421.587 882.51 421.48C882.27 421.4 882.097 421.333 881.99 421.28C881.91 421.253 881.737 421.16 881.47 421C881.203 420.84 881.003 420.72 880.87 420.64L880.71 420.56C880.043 420 879.123 419.04 877.95 417.68C876.803 416.293 876.123 415.48 875.91 415.24ZM864.27 416.48C864.75 417.2 865.47 417.56 866.43 417.56C866.883 417.56 867.51 417.453 868.31 417.24C869.617 416.76 870.803 415.92 871.87 414.72C872.91 413.28 873.497 412.013 873.63 410.92C873.63 410.84 873.683 410.533 873.79 410C873.897 409.44 873.937 409.053 873.91 408.84C873.377 408.973 872.603 409.08 871.59 409.16C870.603 409.213 869.843 409.293 869.31 409.4C868.617 409.507 867.91 409.84 867.19 410.4C866.47 410.933 865.923 411.44 865.55 411.92C865.177 412.4 864.67 413.08 864.03 413.96C863.577 414.52 863.657 415.36 864.27 416.48ZM897.31 410.12C895.55 411.613 893.95 413.467 892.51 415.68C892.456 415.787 892.11 416.373 891.47 417.44C890.856 418.48 890.443 419.24 890.23 419.72C889.936 420.2 889.51 420.373 888.95 420.24L887.19 418.44V417.2C887.323 416.507 887.47 415.16 887.63 413.16C887.79 411.16 887.896 409.973 887.95 409.6C887.95 409.467 887.936 409.347 887.91 409.24L887.75 408.2C887.723 408.093 887.71 407.973 887.71 407.84V407.68C887.71 407.253 887.843 406.907 888.11 406.64C888.403 406.373 888.763 406.253 889.19 406.28C890.043 406.28 890.643 406.547 890.99 407.08C891.176 407.8 891.27 408.733 891.27 409.88C891.27 410.12 891.256 410.427 891.23 410.8C891.23 411.147 891.23 411.333 891.23 411.36C891.443 411.2 891.87 410.8 892.51 410.16C893.176 409.493 893.59 409.053 893.75 408.84C893.936 408.6 894.163 408.28 894.43 407.88C894.723 407.453 895.003 407.093 895.27 406.8C895.536 406.48 895.856 406.173 896.23 405.88C896.363 405.693 896.523 405.56 896.71 405.48C896.896 405.373 897.07 405.32 897.23 405.32C897.416 405.293 897.616 405.28 897.83 405.28C898.043 405.28 898.256 405.28 898.47 405.28C898.763 405.173 899.056 405.2 899.35 405.36C899.67 405.493 900.003 405.787 900.35 406.24C900.696 406.667 900.91 406.96 900.99 407.12C901.096 407.28 901.31 407.613 901.63 408.12C902.456 410.04 902.87 412.133 902.87 414.4L903.63 417.68C903.63 417.76 903.71 418.027 903.87 418.48C904.056 418.933 904.15 419.173 904.15 419.2C904.203 419.92 904.03 420.427 903.63 420.72C903.55 420.747 903.35 420.827 903.03 420.96C902.736 421.067 902.51 421.12 902.35 421.12C902.083 421.12 901.923 420.987 901.87 420.72C901.816 420.64 901.63 420.347 901.31 419.84C901.016 419.307 900.776 418.933 900.59 418.72C900.083 416.96 899.75 415.267 899.59 413.64C899.51 413.453 899.39 413.053 899.23 412.44C899.096 411.8 898.963 411.36 898.83 411.12C898.27 410.48 897.896 410.133 897.71 410.08C897.496 410.08 897.363 410.093 897.31 410.12ZM915.981 410.12C914.221 411.613 912.621 413.467 911.181 415.68C911.128 415.787 910.781 416.373 910.141 417.44C909.528 418.48 909.115 419.24 908.901 419.72C908.608 420.2 908.181 420.373 907.621 420.24L905.861 418.44V417.2C905.995 416.507 906.141 415.16 906.301 413.16C906.461 411.16 906.568 409.973 906.621 409.6C906.621 409.467 906.608 409.347 906.581 409.24L906.421 408.2C906.395 408.093 906.381 407.973 906.381 407.84V407.68C906.381 407.253 906.515 406.907 906.781 406.64C907.075 406.373 907.435 406.253 907.861 406.28C908.715 406.28 909.315 406.547 909.661 407.08C909.848 407.8 909.941 408.733 909.941 409.88C909.941 410.12 909.928 410.427 909.901 410.8C909.901 411.147 909.901 411.333 909.901 411.36C910.115 411.2 910.541 410.8 911.181 410.16C911.848 409.493 912.261 409.053 912.421 408.84C912.608 408.6 912.835 408.28 913.101 407.88C913.395 407.453 913.675 407.093 913.941 406.8C914.208 406.48 914.528 406.173 914.901 405.88C915.035 405.693 915.195 405.56 915.381 405.48C915.568 405.373 915.741 405.32 915.901 405.32C916.088 405.293 916.288 405.28 916.501 405.28C916.715 405.28 916.928 405.28 917.141 405.28C917.435 405.173 917.728 405.2 918.021 405.36C918.341 405.493 918.675 405.787 919.021 406.24C919.368 406.667 919.581 406.96 919.661 407.12C919.768 407.28 919.981 407.613 920.301 408.12C921.128 410.04 921.541 412.133 921.541 414.4L922.301 417.68C922.301 417.76 922.381 418.027 922.541 418.48C922.728 418.933 922.821 419.173 922.821 419.2C922.875 419.92 922.701 420.427 922.301 420.72C922.221 420.747 922.021 420.827 921.701 420.96C921.408 421.067 921.181 421.12 921.021 421.12C920.755 421.12 920.595 420.987 920.541 420.72C920.488 420.64 920.301 420.347 919.981 419.84C919.688 419.307 919.448 418.933 919.261 418.72C918.755 416.96 918.421 415.267 918.261 413.64C918.181 413.453 918.061 413.053 917.901 412.44C917.768 411.8 917.635 411.36 917.501 411.12C916.941 410.48 916.568 410.133 916.381 410.08C916.168 410.08 916.035 410.093 915.981 410.12ZM927.733 409.6C929.653 407.147 931.76 405.547 934.053 404.8C935.52 404.613 936.293 404.52 936.373 404.52C938.027 404.573 939.467 405.08 940.693 406.04C941.92 406.973 942.573 408.253 942.653 409.88C942.68 411.293 942.107 412.587 940.933 413.76C939.787 414.933 938.507 415.573 937.093 415.68C936.56 415.867 935.987 415.96 935.373 415.96C933.987 415.96 932.453 415.453 930.773 414.44C930.267 413.933 929.933 413.68 929.773 413.68C929.667 413.627 929.573 413.627 929.493 413.68C928.613 415.013 928.187 416.027 928.213 416.72C928.507 418.453 929.44 419.92 931.013 421.12C932.587 422.347 934.253 422.907 936.013 422.8C936.28 422.907 936.747 422.907 937.413 422.8C938.08 422.72 938.52 422.653 938.733 422.6C938.973 422.547 939.427 422.413 940.093 422.2C940.787 422.013 941.267 421.88 941.533 421.8C942.467 421.427 943.707 421.187 945.253 421.08H945.533C945.72 421.027 945.893 421.067 946.053 421.2C946.213 421.333 946.307 421.533 946.333 421.8V423.28C945.373 424.373 944.187 424.96 942.773 425.04C942.48 425.12 941.947 425.267 941.173 425.48C940.427 425.693 939.853 425.84 939.453 425.92C939.08 426.027 938.573 426.12 937.933 426.2C937.32 426.307 936.76 426.347 936.253 426.32C933.907 426.427 931.653 425.827 929.493 424.52C927.52 423.507 926 421.747 924.933 419.24C924.533 417.667 924.6 416.133 925.133 414.64C925.667 413.147 926.533 411.467 927.733 409.6ZM930.853 411.52C931.413 411.52 931.893 411.56 932.293 411.64C932.533 411.773 932.76 411.88 932.973 411.96C933.213 412.013 933.493 412.067 933.813 412.12C934.16 412.147 934.387 412.16 934.493 412.16C934.6 412.16 934.88 412.16 935.333 412.16C935.813 412.16 936.067 412.16 936.093 412.16C937.48 411.733 938.4 411.133 938.853 410.36C938.933 410.067 938.933 409.813 938.853 409.6C938.8 409.36 938.653 409.16 938.413 409C938.173 408.84 937.947 408.72 937.733 408.64C937.52 408.56 937.227 408.467 936.853 408.36C936.507 408.227 936.253 408.133 936.093 408.08C935.453 408.08 934.8 408.267 934.133 408.64C933.467 408.987 932.933 409.333 932.533 409.68C932.133 410.027 931.627 410.507 931.013 411.12C931.013 411.147 930.987 411.213 930.933 411.32C930.88 411.4 930.853 411.467 930.853 411.52ZM948.528 413.92C948.555 412.32 948.648 410.173 948.808 407.48C948.968 404.76 949.062 402.867 949.088 401.8C949.062 400.493 949.115 398.053 949.248 394.48C949.382 390.907 949.408 388.293 949.328 386.64C949.542 385.947 949.942 385.6 950.528 385.6C951.275 385.6 951.888 386.027 952.368 386.88C952.368 387.227 952.382 387.547 952.408 387.84L952.568 390.72C952.595 391.013 952.608 391.333 952.608 391.68C952.555 394.187 952.382 397.853 952.088 402.68C951.822 407.507 951.662 410.92 951.608 412.92C951.635 413.293 951.675 413.867 951.728 414.64C951.782 415.413 951.822 415.987 951.848 416.36C951.902 416.707 951.968 417.16 952.048 417.72C952.155 418.253 952.288 418.747 952.448 419.2C952.635 419.627 952.862 420.053 953.128 420.48C953.155 420.853 953.062 421.187 952.848 421.48C952.502 421.693 952.062 421.8 951.528 421.8C950.915 421.8 950.435 421.693 950.088 421.48C949.635 421 949.288 420.4 949.048 419.68C948.808 418.96 948.662 418.4 948.608 418C948.555 417.6 948.528 416.867 948.528 415.8C948.528 414.707 948.528 414.08 948.528 413.92Z" fill="black"/>
<path d="M518.603 283.4C518.449 294.369 517.94 338.317 517.759 349.261M518.385 283C518.147 293.948 517.459 338.142 517.35 349.137" stroke="black" stroke-width="2" stroke-linecap="round"/>
<path d="M514.843 286.34C515.509 283.479 516.133 279.426 517.72 275.771M514.385 286.375C515.456 283.238 516.919 279.48 518.244 275.277" stroke="black" stroke-width="2" stroke-linecap="round"/>
<path d="M522.841 286.375C521.152 283.491 519.423 279.428 517.72 275.771M522.379 286.41C520.893 283.269 519.796 279.498 518.244 275.277" stroke="black" stroke-width="2" stroke-linecap="round"/>
<path d="M521.845 338.002C520.164 341.589 518.409 343.993 516.624 349.359M521.383 338.036C520.053 341.949 518.921 345.221 517.148 348.869" stroke="black" stroke-width="2" stroke-linecap="round"/>
<path d="M513.848 337.962C514.523 341.572 515.121 343.983 516.624 349.358M513.39 337.997C514.613 341.914 516.045 345.198 517.148 348.868" stroke="black" stroke-width="2" stroke-linecap="round"/>
<path d="M804.603 283.4C804.449 294.369 803.94 338.317 803.759 349.261M804.385 283C804.147 293.948 803.459 338.142 803.35 349.137" stroke="black" stroke-width="2" stroke-linecap="round"/>
<path d="M800.843 286.34C801.509 283.479 802.133 279.426 803.72 275.771M800.385 286.375C801.456 283.238 802.919 279.48 804.244 275.277" stroke="black" stroke-width="2" stroke-linecap="round"/>
<path d="M808.841 286.375C807.152 283.491 805.423 279.428 803.72 275.771M808.379 286.41C806.893 283.269 805.796 279.498 804.244 275.277" stroke="black" stroke-width="2" stroke-linecap="round"/>
<path d="M807.845 338.002C806.164 341.589 804.409 343.993 802.624 349.359M807.383 338.036C806.053 341.949 804.921 345.221 803.148 348.869" stroke="black" stroke-width="2" stroke-linecap="round"/>
<path d="M799.848 337.962C800.523 341.572 801.121 343.983 802.624 349.358M799.39 337.997C800.613 341.914 802.045 345.198 803.148 348.868" stroke="black" stroke-width="2" stroke-linecap="round"/>
<path d="M1105.6 283.4C1105.45 294.369 1104.94 338.317 1104.76 349.261M1105.39 283C1105.15 293.948 1104.46 338.142 1104.35 349.137" stroke="black" stroke-width="2" stroke-linecap="round"/>
<path d="M1101.84 286.34C1102.51 283.479 1103.13 279.426 1104.72 275.771M1101.39 286.375C1102.46 283.238 1103.92 279.48 1105.24 275.277" stroke="black" stroke-width="2" stroke-linecap="round"/>
<path d="M1109.84 286.375C1108.15 283.491 1106.42 279.428 1104.72 275.771M1109.38 286.41C1107.89 283.269 1106.8 279.498 1105.24 275.277" stroke="black" stroke-width="2" stroke-linecap="round"/>
<path d="M1108.85 338.002C1107.16 341.589 1105.41 343.993 1103.62 349.359M1108.38 338.036C1107.05 341.949 1105.92 345.221 1104.15 348.869" stroke="black" stroke-width="2" stroke-linecap="round"/>
<path d="M1100.85 337.962C1101.52 341.572 1102.12 343.983 1103.62 349.358M1100.39 337.997C1101.61 341.914 1103.05 345.198 1104.15 348.868" stroke="black" stroke-width="2" stroke-linecap="round"/>
</svg>
